<svg xmlns="http://www.w3.org/2000/svg" viewBox="0 0 989.82 134.36"><defs><style>.cls-1{fill:#fff;}</style></defs><title>brush-stroke-white</title><g id="Layer_2" data-name="Layer 2"><g id="BRUSH"><path class="cls-1" d="M886.68,114.75h0Z"/><path class="cls-1" d="M930.59,102.83l.1-.09C930.68,102.67,930.46,102.75,930.59,102.83Z"/><path class="cls-1" d="M867.27,116.28a4.83,4.83,0,0,0-.68-.29c-.19-.08-.78-.16-.76.12s.36.27.59.3A3.11,3.11,0,0,0,867.27,116.28Z"/><path class="cls-1" d="M219.31,23.8c-.15,0-.64.1-.18.14C219.18,23.94,219.27,23.84,219.31,23.8Z"/><path class="cls-1" d="M182.5,22.13,180,21.76c-.77.64-.32,1,.46,1.09S182,23,182.5,22.13Z"/><path class="cls-1" d="M862.15,117.07c-1.22.08-1.49.15-1.51,1.25l6.95-.5c.07-.06.3-.34.13-.39A16.43,16.43,0,0,0,862.15,117.07Z"/><path class="cls-1" d="M890.1,114.39a.36.36,0,0,1-.15.23C890,114.63,890.2,114.49,890.1,114.39Z"/><path class="cls-1" d="M889,114.59h0Z"/><path class="cls-1" d="M924.68,111.17c.22,0,1.1-.22.57-.48a3.84,3.84,0,0,0-1.46-.15c-.37,0-1,.14-.45.42A4.55,4.55,0,0,0,924.68,111.17Z"/><path class="cls-1" d="M856,118.62h0Z"/><path class="cls-1" d="M858.53,116.34a6.34,6.34,0,0,0-1,0c-2.17,1-4.37,1.23-6.51,2.17,0,0-.05,0,0,0a15,15,0,0,0,4.81.14h.33l1.94-.15c.54-.59.36-1.11,1.06-1.64C859.37,116.65,858.8,116.34,858.53,116.34Z"/><path class="cls-1" d="M897.08,115.44h-.24S897,115.45,897.08,115.44Z"/><path class="cls-1" d="M856,118.62h0Z"/><path class="cls-1" d="M907.85,118.7l5.57-.9A9.15,9.15,0,0,0,907.85,118.7Z"/><path class="cls-1" d="M172.34,23.15c.91-.15.81-.18.41-.87a7.4,7.4,0,0,0-2.53-.39c.17.38,0,.55.31.91A2.61,2.61,0,0,0,172.34,23.15Z"/><path class="cls-1" d="M908.44,113.38c-4.09.5-7.9.34-11.86,1.61-.73,0-1.55.14-2.28.16-4.94.14-10.07.74-14.9,1-1.92.11-2.93,0-4.45,1.17,1.91,0,3.57.3,5.41-.45a8.58,8.58,0,0,1,3.1-.42c3.65.09,9.65-.76,12.55-1,1.42-.11,1.3-.08,1.07-.06,2,0,4.25-.24,6.3-.39,7-.52,13.81-1.37,20.76-2,7.5-.64,15.06-1.41,22.56-1.87a5.67,5.67,0,0,0,2.36-.6c-2.86.1-6,.07-8.82.22C929.57,111.43,919,112.08,908.44,113.38Z"/><path class="cls-1" d="M219.4,23.78h0s0,0,0,0h0s0,0,0,0,.08,0,.08,0h0S219.41,23.78,219.4,23.78Z"/><path class="cls-1" d="M214.71,17.69c.54-.07,2.29,0,.61-.52a22.47,22.47,0,0,0-3.19-.38C211,18.21,214,17.69,214.71,17.69Z"/><path class="cls-1" d="M168.36,22.62l-.35.15a1.7,1.7,0,0,0,.25,0C168.33,22.71,168.32,22.67,168.36,22.62Z"/><polygon class="cls-1" points="865.36 99.48 865.36 99.48 865.36 99.48 865.36 99.48"/><path class="cls-1" d="M881.37,106.54h0s0,0,0,0,.07,0,.08,0,0,0,0,0h0S881.38,106.53,881.37,106.54Z"/><path class="cls-1" d="M877.7,109.25c-.51.34-.41.27.39-.22h0l-.12.08L878,109l-.15.1Z"/><path class="cls-1" d="M162.17,25.51c-.08-.09-.31-.24-.35,0A.79.79,0,0,0,162.17,25.51Z"/><path class="cls-1" d="M879.37,107.1h0Z"/><polygon class="cls-1" points="879.37 107.11 879.37 107.11 879.37 107.11 879.37 107.11"/><path class="cls-1" d="M898.79,103l0,0C898.71,103.19,898.82,103.14,898.79,103Z"/><path class="cls-1" d="M881.46,106.56c.07.06.39.25.37,0A.92.92,0,0,0,881.46,106.56Z"/><path class="cls-1" d="M959.21,101.18c.58-.6-1.26-.73-1.65-.7a3.81,3.81,0,0,0-2.78,1.23C956.16,101.85,958.14,102.29,959.21,101.18Z"/><path class="cls-1" d="M877.91,109c-.06,0,0,.06,0,.11l.26-.17A1.21,1.21,0,0,0,877.91,109Z"/><path class="cls-1" d="M963.84,106.91h0C963.92,107,963.84,106.91,963.84,106.91Z"/><path class="cls-1" d="M961.48,106.58c-1,.09-1.86.32-2.05-.82a3.34,3.34,0,0,0-2.67-.59c-2.22.24-4.9.27-7.21.34h0l-.07-.16c-.42-.84-2-1,.9-1a18.27,18.27,0,0,0,5.29-1,66.53,66.53,0,0,0-12.14.41s.07.09,0,0,.15.2-.11-.13-1.31-2.06-2.21-1.46l0,0c-2,1.07-3.75.66-5.92.41-1.58-.18-3.28-1-4.54.25,0,0-.08.16-.43.39-.76.51-3.66.43-5,1.24a10.49,10.49,0,0,1-1.43,0c-2.24-.85-2.42-.35-4.38.51h0c-.19,0,.33-.1-.22,0-.77.18-3.33.86-4.21.27-1.52-1-2.53-.76-4.11-.67s-3.06.21-4.62.33c-2.09.15,1.53.93-1.5.7a24,24,0,0,0-8.16.33s.07.05.05,0c-.44-.21-2-.74-2.36-.53-1.95,1.24-4.74,1-6.48,1.12-1.28.08-1.76,0-2.07.92.09,0,0,0,0,0-1.16,1-2.44.89-3.88,1a3.93,3.93,0,0,0-1.37.29c-2.17,1.06,0,1.49,1.26,1.57,1.66.1,5.5-1.14,5.89,1.33a11.64,11.64,0,0,0-5.39.15c-.69.19-1.35.42-2,.62-2.78,0-5.5.56-8.29.55a16.22,16.22,0,0,0,6.67,1.13c.32,0,1.43-1.12,1.9-1.22.06,0-.2-.08.17,0a3.32,3.32,0,0,1,1.78,1c1.14,1.35,2.62,1.34,4.16.82,0,0-.11,0,0,0h.06c.31,0,1.91.36,2.18-.17h0l.1,0a1.15,1.15,0,0,0,.9,0c-.06,0,0-.18.64-.7,1.45-1.2,6.51-1.72,8.68-.41.07-.05.09-.08.1-.09h0l.17,0a14.24,14.24,0,0,0,4.07-1,28.36,28.36,0,0,0,4.81,0c1.48-.21,2.33-1.48,3.58-1.91.83-.28.8.07,1.56.24.73,1.69,4,1.06,4.92,1,1.26-.13,2.94-.41,2.13-1.46.09,0-.75.12.19,0s-1.5.24,1.06-.19a104.51,104.51,0,0,1,14.38-1.27,4.12,4.12,0,0,1,2.26.76l0,0c.09.14-.2-.22.06.15.52.74,2.79.36,3.68,0,0,0,.08,0,.11,0l1.41.34a3.55,3.55,0,0,0,2.08-.59,2.8,2.8,0,0,0,1-.51h0l.12,0c.48.08-.78-.11.54.1,1.69.26,6.4.5,8.52-.79a15.71,15.71,0,0,1,4.48-.69,7.46,7.46,0,0,0,3.26-.65l-.1-.05A6.54,6.54,0,0,0,961.48,106.58Zm-66.83,5.37h0Zm33.25-4.24a86.49,86.49,0,0,1-11.47.55,31.81,31.81,0,0,0-7.8.64c-4,.37-8,.4-11.28,3.23-.07,0-.12,0-.18-.06s-.11-.2-.18-.26h0l.06-.06c.2-.25-.22.39.28-.3s-1.32-2-2.44-1.54c4-1.48,8.07-1.41,12.17-2.2,5.85-.12,11.65-.83,17.47-1.41a7.93,7.93,0,0,0,1.15-.37c2.49.12,4.89-.08,7,1.55l0,0C931.12,107.5,929.48,107.55,927.9,107.71ZM940.66,106c-1.2,0-3.64-.11-4.93.74.67-.88,2.13-.9,2.39-2.14.36.06.69.16,1.06.19,1,.08,2,.14,3,.14a6.79,6.79,0,0,0,1.55-.22C944.18,106.24,942,106,940.66,106Z"/><path class="cls-1" d="M878.05,109h0l.17-.11h-.06L878,109l0,0Z"/><path class="cls-1" d="M162.25,25.54h0s0,0,0,0h-.08s0,0,0,0h0S162.24,25.55,162.25,25.54Z"/><path class="cls-1" d="M878.14,108.91h0l.05-.05S878.12,108.9,878.14,108.91Z"/><path class="cls-1" d="M165.65,23.69s0,0,0,0l1.08-.42,1.14-.46s.07,0,.07,0-.11,0-.13,0h0a5.3,5.3,0,0,0-1.15.46s0,0,0,0,0,0,0,0Z"/><path class="cls-1" d="M876.4,109.91c-.32-.33-.29-.59-.74-.87a3.18,3.18,0,0,0-2-.23c-1,.25-.51.42,0,.87A8.81,8.81,0,0,0,876.4,109.91Z"/><path class="cls-1" d="M878.07,109h0l.83-.48c-.06,0,0,0,0,0-.27.18-.42.24-.62.35,0,0,0,0,0,0s0,0,0,0l-.05,0,0,0Z"/><path class="cls-1" d="M829.63,102.08l0,0C829.54,102.16,829.66,102.11,829.63,102.08Z"/><path class="cls-1" d="M207.94,124.23s0,0,0,0l1.08-.43,1.14-.46s.08,0,.08,0-.13,0-.13,0,0,0,0,0,0,0,0,0c-.42.08-.92,0-1.14.46h0A3.1,3.1,0,0,0,207.94,124.23Z"/><path class="cls-1" d="M960.56,25.66c.3,0,.48-.07.25-.39A.34.34,0,0,0,960.56,25.66Z"/><path class="cls-1" d="M119,78h0Z"/><path class="cls-1" d="M792.4,9h0s0,0,0,0,.07,0,.08,0,0,0,0,0h0S792.41,9,792.4,9Z"/><path class="cls-1" d="M185.46,128.64c.15-.07,0,0,0,0Z"/><path class="cls-1" d="M124.12,127.55c-.72.5.92.78,1.35.76a6.07,6.07,0,0,0,3.35-1.07C127.31,127,125.45,126.64,124.12,127.55Z"/><path class="cls-1" d="M911.25,48.71c-.3,0-.68.15-.29.41a2.29,2.29,0,0,0,1,.23c.17,0,.75-.23.37-.47A2,2,0,0,0,911.25,48.71Z"/><path class="cls-1" d="M66.91,79.9a7.42,7.42,0,0,0-2.64.47c2.94,0,6.06.22,9,.18,11.08-.12,22.11-.28,33.14-1.08,4.27-.31,8.43-.05,12.63-1.05.77,0,1.61-.07,2.37-.05,5.14.09,10.43-.27,15.49-.34,2,0,3.21,0,5-.94-2-.11-3.67-.38-5.62.18a9.68,9.68,0,0,1-3.3.27c-3.71-.42-10.16.13-13,.34L119,78h0c-.8.06-.12,0,0,0-2.1,0-4.54.06-6.75.12-7.27.18-14.5.72-21.76,1C82.62,79.37,74.73,79.76,66.91,79.9Z"/><path class="cls-1" d="M962.2,25.64c.36-.25.24-.41-.1-.59Z"/><path class="cls-1" d="M105,78.12a11.6,11.6,0,0,0,5.94-.63Z"/><path class="cls-1" d="M89,80.92c-.15,0-1.24.14-.8.45a3.19,3.19,0,0,0,1.38.22c.32,0,1.13-.05.66-.39A3.6,3.6,0,0,0,89,80.92Z"/><path class="cls-1" d="M765.88,5.55C771.66,5.26,777.31,4.38,783,4a7.5,7.5,0,0,1,1.26.09c.24,0,.37.21.25.33-.26.29-.68.32-1,.54a.29.29,0,0,0-.07.44.81.81,0,0,0,.34.23,10.21,10.21,0,0,0,1.56.55,20.87,20.87,0,0,1,2.67,1l.09,0c.11.08.22.12.35.2a2.1,2.1,0,0,1,.38.31,2.48,2.48,0,0,1,.46.61h0l0,0c-.12.16.16-.33-.16.16s0,2.29,1.21,1.07h0l2-.55c0-.15-.16-.24-.16-.4h0s0,0,0,0-.27.17.17-.11A27.51,27.51,0,0,1,795,7.13s-.06,0,.08,0a5.76,5.76,0,0,0,.89,0c.38-.09.52-.34.8-.58a4.37,4.37,0,0,1,3.11-1.08c1.36.24,2.73.28,4.08.63,2.14.49,4.07,1.08,5.92-.45l.18-.13c.43-.29,2,.12,2.52.36,2.23.95,3.86,1.1,5.91-.25a13.56,13.56,0,0,0,5.46-3,1,1,0,0,0-.15-.1c-1.08.06-2.39.22-3.41.25-.7,0-.93-.33-1.55-.34h0a5.46,5.46,0,0,0,1.24-1.24c.21-.33-.16-.71-.5-.67-2.39.25-4.11-.6-6.64-.44-4,.26-8.71.76-12.85,1.18a25.11,25.11,0,0,0-6.64,1.28,13.08,13.08,0,0,1-7.34.48c-3-.44-6.27-.23-9.3-.64-.26.19-.46.39-.74.58-.54-.17-2.15-.46-2.5-.09-1.86,2-3.69,1.37-6.08,1.45a49.2,49.2,0,0,0-9.42,1.18,5.42,5.42,0,0,0,.74.2A53.81,53.81,0,0,0,765.88,5.55Zm43.83-1.12c.61-.2,1.52-.48,2.21-.68.26-.07.55-.16.8-.26,0,.2.21.45.25.62.21.94-1.06.09-1.56.22a3.21,3.21,0,0,0-2.3.7C809,4.59,809.26,4.58,809.71,4.43ZM795,4a26.07,26.07,0,0,0-2.8,2.26c-.23.16-.29.36,0,.55,0,0,.07,0,.09,0h0s0,0,0,0c-.5-.27-.32-.51.08-.79C790.17,4.21,793.74,4.17,795,4Z"/><polygon class="cls-1" points="956.57 12.41 956.57 12.41 956.57 12.41 956.57 12.41"/><path class="cls-1" d="M867.86,4c.54-.59-1.15-.74-1.53-.71a3.45,3.45,0,0,0-2.61,1.22C865,4.63,866.86,5.07,867.86,4Z"/><path class="cls-1" d="M790.37,9.6h0l0,0h0Z"/><path class="cls-1" d="M790.38,9.61h0Z"/><path class="cls-1" d="M809.93,5.59h0C809.78,5.72,809.94,5.66,809.93,5.59Z"/><path class="cls-1" d="M956.65,12.48c.14,0,0-.07-.07-.07S956.63,12.49,956.65,12.48Z"/><path class="cls-1" d="M961.84,11.89a.87.87,0,0,0-.31,0c-.09,0-.07.1-.11.16a.86.86,0,0,0,.31,0C961.82,12,961.8,11.95,961.84,11.89Z"/><path class="cls-1" d="M174.94,131.42l0,0,0,0Z"/><path class="cls-1" d="M792.86,9.09a.94.94,0,0,0-.37,0C792.56,9.12,792.88,9.32,792.86,9.09Z"/><polygon class="cls-1" points="792.2 6.79 792.19 6.8 792.2 6.8 792.2 6.79"/><path class="cls-1" d="M482.32,131a1.49,1.49,0,0,1-.37,0l-.42-.08a1,1,0,0,0,.45.34c.23.1.57.21.82.3-.13,0-.37.13-.12.24a4,4,0,0,0,.8.18,1,1,0,0,1,.35-.69,12.74,12.74,0,0,1-1.21-.4A.5.5,0,0,1,482.32,131Z"/><path class="cls-1" d="M473.79,128.26l.5-2.12C473.42,126.76,473,127.31,473.79,128.26Z"/><path class="cls-1" d="M480.39,130.71a1.22,1.22,0,0,0-.38.78,1.44,1.44,0,0,0,.29.8c.31-.07,1-.14,1.12-.53C481.55,131.12,480.76,131,480.39,130.71Z"/><path class="cls-1" d="M261.36,124.47s.14-.1.18-.14C261.39,124.35,260.91,124.43,261.36,124.47Z"/><path class="cls-1" d="M122.46,19a3.56,3.56,0,0,0-1.24-.29c-.15,0-1.23.13-.79.45a3.16,3.16,0,0,0,1.37.23C122.11,19.43,122.92,19.36,122.46,19Z"/><path class="cls-1" d="M856,118.62h0Z"/><path class="cls-1" d="M261.63,124.31h0s0,0,0,0,.08,0,.08,0h0S261.64,124.31,261.63,124.31Z"/><path class="cls-1" d="M466.39,130l-.13.59C467.27,130.45,467.53,130.34,466.39,130Z"/><path class="cls-1" d="M798.91,123.09c-.17.07-.2.22-.31.34a4.16,4.16,0,0,0,.9,0c.21,0,.37-.17.24-.32S799.15,123,798.91,123.09Z"/><path class="cls-1" d="M693.72,128.78c.67.89,1.75.69,2.67.71.37,0,.86,0,.82-.49a5,5,0,0,0-2.57-.76C694,128.14,693.37,128.3,693.72,128.78Z"/><path class="cls-1" d="M555.68,127.66s0,0,0,0,0,0,0,0,0,0,0,0h.06S555.68,127.67,555.68,127.66Z"/><path class="cls-1" d="M533.26,129.63a4.72,4.72,0,0,0-3,.29c-.2.12-.08.32.1.38a6,6,0,0,0,3.07,0c.48-.1,1.3,0,1.06-.59Z"/><path class="cls-1" d="M541.22,128.76c-.58.07-1.94.11-1.15.72.48.37,1.59.14,2.08.05s1.31-.17,1.08-.89A6.27,6.27,0,0,0,541.22,128.76Z"/><path class="cls-1" d="M369.55,134.36l-.39-.58C368,134.29,368.76,134.31,369.55,134.36Z"/><path class="cls-1" d="M219.46,16.61h-7.23A37.07,37.07,0,0,0,219.46,16.61Z"/><path class="cls-1" d="M229.28,130.93c-6,0-11.89.54-17.82.58a4.83,4.83,0,0,1-1.23-.17c-.23-.06-.23-.25-.07-.35a11.29,11.29,0,0,1,1.19-.45c.22-.09.33-.25.29-.43s-.12-.18-.23-.26a6.15,6.15,0,0,0-1.29-.63,13.59,13.59,0,0,1-2.21-1.09s0,0-.08-.06-.16-.13-.24-.2a1,1,0,0,1-.22-.33c-.07-.2-.11-.42-.17-.63.73-.73.91-2.37-.39-1.31h0s0,0,0,0l-2.26.45c0,.13,0,.27,0,.4h0v0l-.18.08c-.63.29-2.48.94-3.13,1.17l-.18.06h0c-.3.05-.72,0-1,0a3,3,0,0,0-1.09.54,6.66,6.66,0,0,1-3.6.91,37,37,0,0,1-3.75-.82c-2.19-.61-4-1-6.11.16h0l-.17.08a4.22,4.22,0,0,1-2.4-.44,6.13,6.13,0,0,0-6.06,0A23.13,23.13,0,0,0,170,131s.05.08.1.1c1.09,0,2.48-.09,3.5-.07.69,0,.8.33,1.36.43,0,0,.05-.06,0,0h0l0,0a8.62,8.62,0,0,1-1.78,1.1c-.26.12-.2.71.14.69,2.42-.12,3.87.8,6.47.75,4.14-.07,9.07-.32,13.36-.54a32.34,32.34,0,0,0,7.14-.93,14.19,14.19,0,0,1,7.51-.13c2.95.61,6.05.55,9,1.13.34-.18.64-.36,1-.53.57.19,2,.52,2.47.22,2.3-1.58,4.1-1.14,6.67-1.1a59.2,59.2,0,0,0,10-.65c-.21-.09-.42-.17-.64-.25A57.4,57.4,0,0,0,229.28,130.93Zm-44.17-1.12c-.69.17-1.73.4-2.52.56-.29.06-.63.14-.92.21.08-.17,0-.45,0-.62.23-.93,1,0,1.66-.15a4.79,4.79,0,0,0,2.63-.58C185.9,129.73,185.63,129.69,185.11,129.81Zm18.11-.75c1.29,2-2.51,1.8-3.67,1.91,1.36-.5,2.52-1.45,3.81-2.08.3-.15.47-.22.32-.55,0,0-.07,0-.08,0s0,0,0,0,0,0,0,0C204.14,128.69,203.57,128.9,203.22,129.06Z"/><path class="cls-1" d="M204.45,126.06c-.08-.09-.31-.24-.35,0A.79.79,0,0,0,204.45,126.06Z"/><polygon class="cls-1" points="203.66 128.32 203.67 128.31 203.66 128.31 203.66 128.32"/><path class="cls-1" d="M223.27,17.23a1.93,1.93,0,0,0-.93-.06c-.21,0-.5.14-.71.21a5.57,5.57,0,0,0,.9.14C222.76,17.52,223.65,17.63,223.27,17.23Z"/><path class="cls-1" d="M224,16.58a2.46,2.46,0,0,0-.56.15,2.8,2.8,0,0,0,1.17.15,2.85,2.85,0,0,0,.71-.1C225,16.41,224.41,16.55,224,16.58Z"/><path class="cls-1" d="M214.74,127c.91-.15.82-.17.43-.87a7.44,7.44,0,0,0-2.54-.4c.17.39-.06.55.3.91A2.62,2.62,0,0,0,214.74,127Z"/><path class="cls-1" d="M210.55,123.37l0,.12c.25.79.27,3.06.63,1.94C210.42,125.39,211.18,123.76,210.55,123.37Z"/><path class="cls-1" d="M224.78,122.66l-2.51-.37c-.77.64-.32,1,.46,1.09S224.3,123.55,224.78,122.66Z"/><path class="cls-1" d="M210.38,123.31a.56.56,0,0,1,.17.06C210.43,123,210.41,123.21,210.38,123.31Z"/><path class="cls-1" d="M210.38,123.31s-.05,0-.09,0S210.36,123.36,210.38,123.31Z"/><path class="cls-1" d="M204.55,126.09s0,0,0,0h-.08s0,0,0,0,0,0,0,0,0,0,0,0S204.54,126.1,204.55,126.09Z"/><path class="cls-1" d="M652,127.15c-.11.75.64,2.39,1.44,2.47,1.9.18.56-1.44.05-2.49l0,0-1.48.05Z"/><path class="cls-1" d="M149.61,78.83c.19.08.74.18.8-.09s-.25-.29-.47-.32a3.7,3.7,0,0,0-.9.09A2.72,2.72,0,0,0,149.61,78.83Z"/><path class="cls-1" d="M655.59,127c-.17,0-.34.09-.5.16l7.41.26H663c7.77.36,16,.39,23.67.45,1.33,0,2.28.3,2.72-.54.54-1-1.59-.77-2.35-.84-.26,0-.62,0-1-.06q-7.3.16-14.62.37C666.17,127,660.89,126.92,655.59,127Z"/><path class="cls-1" d="M825.83,117.78a2.24,2.24,0,0,0,.93,0,5.24,5.24,0,0,0,.63-.25,6.64,6.64,0,0,0-1-.1C826.17,117.46,825.33,117.42,825.83,117.78Z"/><path class="cls-1" d="M10.38,112.79s.06,0,.08,0,.06,0,.07,0S10.38,112.78,10.38,112.79Z"/><path class="cls-1" d="M161.35,76.75h0Z"/><path class="cls-1" d="M154.58,78c1.23,0,1.62-.08,2.08-1.17l-7.2.16c-.06,0-.48.31-.32.38A14.32,14.32,0,0,0,154.58,78Z"/><path class="cls-1" d="M826.59,111.09c.18,0,.53-.13.11-.15C826.66,110.94,826.61,111,826.59,111.09Z"/><polygon class="cls-1" points="836.32 101.64 836.31 101.64 836.32 101.64 836.32 101.64"/><path class="cls-1" d="M826.51,111.11h.05s0,0,0,0-.07,0-.07,0h0S826.51,111.11,826.51,111.11Z"/><path class="cls-1" d="M834,116.91c-.67.13-2.07.18-.34.55a26.18,26.18,0,0,0,3.29.21C837.39,116.19,834.79,116.87,834,116.91Z"/><path class="cls-1" d="M863.25,110.93l2.62.24c.49-.87-.32-1-1-1.06S863.28,109.91,863.25,110.93Z"/><path class="cls-1" d="M86.72,26.47c-1.51-.21-3.36-.62-4.69.3-.72.5.92.79,1.34.77A6,6,0,0,0,86.72,26.47Z"/><circle class="cls-1" cx="164.52" cy="25.08" transform="translate(42.16 137.88) rotate(-51.34)"/><path class="cls-1" d="M143.21,28.08l0,0C143.31,27.93,143.18,28,143.21,28.08Z"/><path class="cls-1" d="M191.24,79a1.92,1.92,0,0,0-.92-.06c-.21,0-.5.14-.71.21a5.54,5.54,0,0,0,.9.14C190.74,79.33,191.62,79.43,191.24,79Z"/><path class="cls-1" d="M164.49,25.09h0Z"/><path class="cls-1" d="M921.4,47.87v0h0Z"/><path class="cls-1" d="M182.69,79.5c.54-.07,2.29,0,.61-.52a22.44,22.44,0,0,0-3.19-.37C179,80,182,79.51,182.69,79.5Z"/><path class="cls-1" d="M161.49,76.75h0Z"/><path class="cls-1" d="M159.28,76.81c-.74.49-1,1.13-1.84,1.56-.26.13.07.47.38.5a5.54,5.54,0,0,0,1,.07c2.54-.84,5-1,7.55-1.82,0,0,.05,0,0,0a13.3,13.3,0,0,0-4.74-.37h-.35Z"/><path class="cls-1" d="M134.68,13.07h0Z"/><path class="cls-1" d="M161.4,76.75h0Z"/><path class="cls-1" d="M249.31,15.1h-.05S249.34,15.12,249.31,15.1Z"/><path class="cls-1" d="M836.32,101.64c.09,0,.32-.07.07-.08C836.37,101.56,836.34,101.62,836.32,101.64Z"/><path class="cls-1" d="M247.4,16.31h0Z"/><path class="cls-1" d="M247.41,16.3h0Z"/><path class="cls-1" d="M352.07,28.48h0Z"/><path class="cls-1" d="M101.16,106.3c-.64,0,.29,0,0,0Z"/><polygon class="cls-1" points="881.17 104.29 881.16 104.3 881.17 104.3 881.17 104.29"/><path class="cls-1" d="M159.48,75.42Z"/><path class="cls-1" d="M987.39,89c-7.55-.07-15,.12-22.5.21-12.7.15-25.3.43-38,.46-17.72,0-35.43.2-53.15.29a3.88,3.88,0,0,0,.45-.18c5.73-.51,11.43-1.35,17.17-1.78-2.17-.28-4.28.2-6.29-.89-3.9,0-7.8-.1-11.69,0a2.56,2.56,0,0,0,1.4-.33,2.88,2.88,0,0,1-1.15-.14,8.54,8.54,0,0,0,4.2-1A77.25,77.25,0,0,1,866,86c2.56-.65,5.19-.63,7.78-1-3.39-.18-6.78-.32-10.17-.36-.06-.58-1.1-.62-1.52-.8a48.69,48.69,0,0,1,5-.5c-.36,0-1.67-.15-.84-.61a25.84,25.84,0,0,0,3.53-.2c-.43.42-.79.61-.05.88a14.56,14.56,0,0,1,6.87-.83,1.88,1.88,0,0,0-.29-.28c5.27.15,10.5-.18,15.78.13a11.45,11.45,0,0,0,1.81-.1c1.71-.19,3.4-.19,5.12-.22a.18.18,0,0,0,.18-.15c0-.11-.16-.22-.26-.23a57.44,57.44,0,0,0-6.61-.35,6.78,6.78,0,0,0-1.34.33,9,9,0,0,1,1.25-.47c.59-.09,2.61.07,2.58-.84,0-.31-.87-.31-1.08-.34L907.2,80c1.51-.05,3.85.26,4-1.83,0-.42-.17-.55-.3-.92-.06-.18-.46-.19-.61-.22.38-1-1.75-.63-2.49-.64l-2.15,0c1.7,0,3.44-.09,5.15-.24.26-.1.63-.18.65-.53,7.51-.58,15-1,22.56-1.27,2.92-2.44,6.31-1.69,9.76-1.32,1.52-.58,3.13-.56,4.63-1.22a22.57,22.57,0,0,1-5.36-.55c-.34-.56-.68-.9,0-1.36a120.25,120.25,0,0,0,12.61-.41c-3.7-.23-7.38-.68-11.08-.82.15-.49.12-1.07-.46-1.11-.19,1.38-2,1.13-3,1.34a4.94,4.94,0,0,1-3-1.16c2.22-.84,4.52-1.34,6.79-2A4.6,4.6,0,0,0,941,65a103.83,103.83,0,0,0-14.48.33c-4.9.43-10,.92-14.93,1-1,0-1.28-.42-2.46-.3a89.21,89.21,0,0,1-16,.56,13.84,13.84,0,0,0,1.58-.19,15.89,15.89,0,0,1-2.39,0l-.22,0-.37,0c-1-.07-2-.16-3.09-.21.19,0,.25-.06.14-.1a9,9,0,0,0-2-.13c-1.85-.1-.08-.12.46-.17h0c.5,0,1.47,0,1.26-.07-.57-.14-.25-.35-2.92-.35-1.3,0-2.44-.06-3.56-.12a1.72,1.72,0,0,1-.35-.06l.35.06c-.27-.12.31-.15,1.47-.12a7.61,7.61,0,0,0,1.43,0c.17-.09-.78-.09-1.48-.09h0c-.41-.06-.28-.09.46-.11s1.47,0,2-.05h0l2.66-.11c-.53-.1-2.33-.11-1.56-.24a13.59,13.59,0,0,1,2,0c2.6.16,1.7-.09,2.1-.16s-.53-.13-.31-.21c1.59-.2,1.08-.28-2-.31v-.09l1,0h0c.84,0,1.78,0,2.52,0,1.19-.12-.05-.16-.93-.2l-3.52-.13h0s0-.1.61-.1c1.58,0,3.12-.06,4.7,0,.91.14,2.63,0,3.74.11a12.73,12.73,0,0,0,2.77,0c.77-.12.45-.39-.64-.43-2.07-.08-4.08-.17-6.32-.21-4.22-.08-7.46-.37-11.68-.45h0c-.44,0-.77-.11-1.15-.16.51,0,1-.08,1.42-.14l.17,0h.16a27.72,27.72,0,0,0,4.05,0c3,0,5.93-.14,8.88,0a5.79,5.79,0,0,0,2.2-.27s-.09-.13-.11-.13c-.42,0,.1,0,.48,0h2.06a10.37,10.37,0,0,0-1.62.17,9.44,9.44,0,0,0,2.77.29c3.6,0,7.37-.1,11,0,5.06.19,10-.14,15.07.19A10.14,10.14,0,0,0,928,62c1.61-.19,3.2-.18,4.81-.21a.18.18,0,0,0,.17-.15c0-.11-.15-.22-.25-.24a50.8,50.8,0,0,0-6.21-.37,6,6,0,0,0-1.26.33,8.18,8.18,0,0,1,1.17-.47c.57-.1,2.45.06,2.42-.83,0-.31-.81-.31-1-.34l12.72,0c1.49-.05,3.62.22,3.73-1.83,0-.41-.16-.56-.28-.92-.06-.18-.43-.19-.58-.22.36-1-1.64-.64-2.35-.64-.45,0-1.49,0-2,0,1.6,0,3.24-.08,4.86-.23,1.09-.67,0-.9-.72-1.07-7.09,0-14.18.05-21.26.16-5.07.08-10.09.17-15.15.22a17,17,0,0,0-3,0c-5.62.07-11.79.11-17.29.11h-3c1.19-.09,1.44-.19-.12-.27l-.06,0-1-.11h0l1.14,0a8.54,8.54,0,0,0,2.05-.1,7.86,7.86,0,0,0-2.16-.13l-1.94-.08c-.36-.05-1.9-.12.21-.14,1.73,0,3.45-.07,5.12,0,.89.06,2.09,0,3,.06a12.41,12.41,0,0,0,2.63,0c.75-.11.54-.41-.44-.44-1.72-.05-3.32-.14-5.06-.18,1.62-.17,3.15-.38,4.25-.53l.62-.08c1.45-.06,3.25-.19,4.76-.31,5-.39,10.11-1.14,15-1.63,5.27-.53,10.27-1.16,15.48-1.51a2.72,2.72,0,0,0,1.57-.56c-2,.07-4,0-6,.09-7.48.47-14.86.94-22.31,2.05-2.88.43-5.92.23-8.7,1.42-.59,0-1.09.11-1.7.12-3.35.06-6.81.44-10.17.7l-1.83-.11c-.39,0-.88-.05-1.33-.05a37.94,37.94,0,0,1-3.88-.2h0A8,8,0,0,0,870.8,53h0a76.42,76.42,0,0,0-8.35-.58l-.44,0,3.89-.27c.65.18,1.17.37,1.56,0l1.68.08c1.39.12,2.85.23,4.13.36a11.12,11.12,0,0,0,1.82.06c.85,0,1-.09.36-.16s-.11-.08.58-.09h0l1.83.09h0l1.06.24a4.15,4.15,0,0,0,1.21.07,23.13,23.13,0,0,0,2.71-.15s0,0,0-.05a4.6,4.6,0,0,0,.88-.25H885l-.56-.05a10.72,10.72,0,0,0,1.18-.11c.06,0,0,0,0,0l.07,0c.15.07.55.18.75,0,0,0,0-.21.5-.67,1.06-1.06,5-1.65,6.62-.29.07-.06.08-.08.08-.09h0l.13,0a8.43,8.43,0,0,0,3-1,15,15,0,0,0,3.53.09c1.14-.2,1.63-1.41,2.56-1.85.62-.29.58.08,1.11.26.56,1.54,2.63,1.13,3.59,1,1.28-.12,1.8-.25,1.42-1.42.06,0-.51.09.13,0l.74-.14a66.21,66.21,0,0,1,9.9-1.09,2.3,2.3,0,0,1,1.58.79s0,0,0,0h0l0,.17s1.94.76,2.58.05c0,0,0,.05.07.06.33.1.65.24,1,.36A1.8,1.8,0,0,0,926.4,48c.27-.14.52-.21.67-.5h.09c.38,0-.66,0,.44,0s4.86.28,6.44-.56a8.78,8.78,0,0,1,3.56-.68,4.75,4.75,0,0,0,2.58-.63l-.11-.06a4.88,4.88,0,0,0-1.84-.28c-.91.1-1.5.19-1.72-.84a2.37,2.37,0,0,0-2.21-.59c-1.8.37-3.76.94-5.58.23,0,0,0,0,0,0l-.1-.2c-.32-.62-1.13-1.06.63-1a6.36,6.36,0,0,0,3.13-.92,15.42,15.42,0,0,0-7.81.2l-.11,0c-.27-.11-1.49-.43-1.46-1.1.7-.1,1.55-.2,2.26-.29,2.25-.27,4.43-.49,6.66-.72,0,.12-.12.23-.17.35.9.2,2,.54,2.59-.42.31-.52-.67-.74-1-.74a2.67,2.67,0,0,0-.36,0c.94-.87,2.09-.35,3.21-.28.41-1.17,2.14-.35,3-.43a38.86,38.86,0,0,0,6.55-1.43,31.9,31.9,0,0,0-5,.1,1.19,1.19,0,0,1,.5-1.11c.73.15,1.25.09,1.46-.77a10.75,10.75,0,0,1-3.6-.21,6.51,6.51,0,0,1,4.94-.8,12.77,12.77,0,0,1,4.38-1c.57-1.47,1.77-1.12,3-1a3.59,3.59,0,0,1,1.42-1.86,9.76,9.76,0,0,1-1.44-.12,2.54,2.54,0,0,1,2.09-2.12c-.08.24-.21.46-.31.7a4.93,4.93,0,0,0,2.52-1.32c.71.11,1-.19,1.73-.31,1.17-.18,2.45,0,3.42-1l-.37-.05,0,0h-.3a2.88,2.88,0,0,1-1.89-.61.62.62,0,0,1,.18,0s0,.07,0,.07.09-.09.14-.09c.47,0,.88.11,1.24-.29a5.65,5.65,0,0,0-.64-.09l1.32-.07,0,0,.43.09s0-.08,0-.13c1.37,0,2.77,0,4.13-.06a6.43,6.43,0,0,0,2.14-.32c2.26-.17,4.29-.28,6.61-.37a44.29,44.29,0,0,0,6.57-.72c-4.27,0-8.69.06-12.92.05a5,5,0,0,1-1.17-.09h0c.11,0,.67,0,.59-.38a7.91,7.91,0,0,0,2.24,0,18.37,18.37,0,0,1,2.35-.15,2.65,2.65,0,0,0,1.64-.31,2.61,2.61,0,0,1,1.36-.17,15.77,15.77,0,0,0,3.16-.26l6.1-.17c-6.64-.28-13.28.11-19.91-.34,8-.44,16-.63,24.06-.85a11.39,11.39,0,0,0-3.14-.59c-3.73-.13-7.48-.19-11.22-.31a4.3,4.3,0,0,0-2.16-.47c3.58-.13,7.15,0,10.73-.3-1.91,0-3.81-.15-5.72-.11a11.44,11.44,0,0,1,1.87-.3c-.4-.19-.92,0-1.29-.2-.16-.08,0-.09.19-.1,1.83,0,3.83-.12,5.71-.18h0a.71.71,0,0,0,.14,0l3-.46s0-.09.09-.05-.09.05-.09.05l3.64-.1a7.24,7.24,0,0,0-2.81-.29c-.58,0-1.39,0-1.77-.06-.78,0-1.36-.18-.75-.77s.46-.81-.23-1.26c-.18-.89-.34-.53-1.39-.56-1.43,0-3.82-.18-5.4-.23-.39,0-1,.06-1.11-.24-.23-.49.68-.35.94-.4s.41,0,.35-.29a39.52,39.52,0,0,0-6.67-.67l-.24,0a10.87,10.87,0,0,0-3.64,0,5.65,5.65,0,0,1-1.83.14s0,0,0,0,0,0,0,0-.21.06,0,.26c0,0,0,0,0,0a.9.9,0,0,1,.07.35s.12,0-.07,0a1.93,1.93,0,0,1-1-.17c-.17.18-.26.22-.4,0v-.08c0-.15-.18-.59-.42-.6a4,4,0,0,1-2.23.15s0,.15,0-.09a6.15,6.15,0,0,1-.21-1.28c-.29-.1-1.1.11-.94.49.23.56-.11.45-.07.91h0l-.08,0c-.25-.12-.9-.48-1.23-.1l-.3,0c-.28,0-.46.16-.72.2-.11-.18-.21-.13-.39-.17s-.21-.12-.34-.13a19.24,19.24,0,0,1-2.46-.23c-.49.34-.83.52-1.28,0-.77-.81-1.33-.36-2.25-.19-1-.28-1.9-.63-2.87-.89a4.76,4.76,0,0,0-.91-.08c-.3,0-.54,0-.84,0-.11,0-.23-.14-.35-.15-4-.19-7.88-.24-12-.28h-2.14c-7.91-.05-14.11-.08-22.45-.24-12.26-.23-26.3-.35-38.9-.42a2.5,2.5,0,0,0,1-.45l-.1-.06a5.31,5.31,0,0,0-2-.29c-.93.09-1.62.23-1.79-.85A2.53,2.53,0,0,0,865.21,8c-2,.38-4.28.84-6.39.24h0L858.65,8c-.59-.81-1.9-1.05.93-.94a15.28,15.28,0,0,0,5-1,33.14,33.14,0,0,0-11.31.34l0,0c-.15-.07.15.09-.23-.1a9.16,9.16,0,0,1-2-1.5c-.09,0,.54,0-.39,0-1.32,0-3.61.37-5.34.35C844,5.1,842,4,841,5.39c0,0-.06.15-.38.39-.79.57-3.46.39-4.74,1.23a9.36,9.36,0,0,1-1.35,0c-2.17-.87-2.28-.37-4.17.49h0c-.18,0,.32-.09-.21,0-.76.18-3.18.84-4,.25-1.49-1-2.48-.77-4-.68s-3,.2-4.57.32c-2.17.15,1.64.94-1.47.7a24.24,24.24,0,0,0-8.21.31s.07.05.05,0c-.44-.22-2-.75-2.37-.54-2,1.24-4.78,1-6.52,1.1-1.28.07-1.8,0-2.07.91a0,0,0,0,0,0,0c.13-.06.44-.21-.38.24-1.3.71-3.43-.18-5.3-.21C772,9.8,752.67,10,733.47,10c-2.16,0-4.41,0-6.55,0a.56.56,0,0,0,.28-.81,4.22,4.22,0,0,0-1.14-.47c-.25.05-2.29.18-1.37-.5.68-.5,2.12-.2,2.81-1h0c1.14.07,2.74.44,3.73-.17s.85-1.14-.25-1.66a15.94,15.94,0,0,0-6-1.25c-1.21,0-3.86-.62-4.15,1.29-.07.47-1.29.29-1.78.24-2.89-.35-5.17-.78-7.77,1.23-1.9,1.47-4.1,1.5-6.58,1.76-2,.2-4.36.22-6.52.35-4.26.24-8.71.41-13,.85-18-.06-36-.2-54-.16a53.25,53.25,0,0,0-6.2.2,41.77,41.77,0,0,1-5.15.13c-7.06,0-14.11-.23-21.17-.1h-.06c-7.48-.12-14.87-.05-22.33-.12-35.7-.33-71.35-.84-107-1.32-11.66-.16-23.31-.25-35-.5-3.08-.44-5.79-1.49-8.68,0a3.58,3.58,0,0,1-.41.21c-.89.42-2.62-.27-4.06-.29-29-.35-58.13-.46-87.15-.61-2.24,0-4.48.05-6.71,0a6.36,6.36,0,0,0-1.22,0c-1,0-1.94,0-2.9,0-4.74-.05-9.49-.52-14.22-.32-7.6.32-15.22.25-22.81.25a31.84,31.84,0,0,0-6.76.51C273.81,8,268.29,6.95,263,9.19l0,0c-.16-.09.26.11-.18-.11a2.69,2.69,0,0,0-2.73.72c-.07,0,.18-.06-.16,0s-1.31.24-1.78.3l-49.91.05c-2.22,0-4.44,0-6.66-.07a4.49,4.49,0,0,0-1.21,0c-1,0-1.92,0-2.88,0-4.72,0-9.44-.61-14.16-.35-7.58.42-15.17.3-22.74.32a26.55,26.55,0,0,0-6.72.6c-5.52.39-11-.8-16.24,1.75h-.25a5.65,5.65,0,0,0-2.65.65s0,0,0,0l0,0s0,0,0,0l-.25.07c-.76.21-2.48.54-3.39.68-.62.09-.86.14-1.18.63,0,0,0,0,0,0h0l0,.12c-.06.29.11-.59-.13.39-.34,1.37-1,1.47,2.15,1,3.29-.45,7.75-.09,11.37-.14,2.75,0,5.69,0,8.45,0l-.73.08h-.47c-1.55,0-4.12,0-6.27.06-7.05.14-14.34.62-21.51.85-7.74.25-15.64.58-23.37.67a7.31,7.31,0,0,0-2.63.45c2.93,0,6,.26,8.92.24,11-.06,22-.1,33-.87,3-.21,6-.07,9-.27,3.76,0,7.52,0,11.27-.06a.6.6,0,0,0-.29.2l-.06,0-.06,0a1.16,1.16,0,0,0-.94,0c.07,0,0,.1-.79.48-1.84.91-6.64,1.23-9,.12l-.12.06h-.22a19.17,19.17,0,0,0-4.55.81,28.39,28.39,0,0,0-4.79-.27c-1.63.14-3.05,1.34-4.47,1.69-.94.24-.68,0-1.43-.32-.32-1.88-3.61-1.24-4.61-1.21-1.32,0-2.81-.15-2.67,1.33l-.17,0L124,20c-3.94.32-11,.7-15.6.61a2.73,2.73,0,0,1-1.76-.88l0,0c-.08-.13.19.2-.05-.12-.52-.7-2.69-.46-3.59-.21,0,0-.07,0-.09,0l-1.24-.41a5.17,5.17,0,0,0-2.35.47,3.39,3.39,0,0,0-1.26.45l-.12,0c-.48-.12.78.16-.53-.14-1.8-.42-6.51-.79-8.81.36a20.67,20.67,0,0,1-4.8.44,9.9,9.9,0,0,0-3.55.47l.11.07a5.84,5.84,0,0,0,2.09.38c.88,0,2-.23,1.63.92a2.38,2.38,0,0,0,2.43.69c2.29-.3,5-.8,7.31.09,0,0,0,0,0,0l.08.27c.28.88,1.24,1.15-1.55.85a20.88,20.88,0,0,0-5.69.72,66.76,66.76,0,0,0,12.29.25s-.05-.12,0,0a1.28,1.28,0,0,1,.12.25c.22.49.6,1.68,1.45,1.39.1.06-.65,0,.45,0,1.26,0,3.94-.21,5.71-.06,1.33.11,3.46,1.34,4.58,0,0,0,.1-.17.42-.41.87-.64,4.15-.65,5.71-.94a12.18,12.18,0,0,1,1.41,0c1.9.9,2.82.28,4.63-.26,0,0,0,0,0,0h0c.19,0-.33.09.21,0,.77-.16,3.57-.8,4.35-.05,1.34,1.28,2.29.89,3.85.87s3.16,0,4.69-.09-.62-.94,2-.6a25.16,25.16,0,0,0,8.16.08s0-.05,0,0c.44.22,1.76.8,2.13.64,2.18-1,5.06-.73,7-.76,1.41,0,1.78.09,2.51-.8-.08,0,0,0,0,0a8.81,8.81,0,0,1,4.34-.81,5.06,5.06,0,0,0,1.52-.21c2.85-1,1.09-1.36-.5-1.61-1.28-.2-6.07.89-5.25-1.62a12.21,12.21,0,0,0,5.45.13c.66-.13,1.85-.41,2.27-.49,3,.14,5.72-.29,8.64-.14a12,12,0,0,0-6.18-1.44c-.31,0-1.93,1.06-2.46,1.1-.09,0,.17.09-.17,0a1.83,1.83,0,0,1-1.34-1A1.93,1.93,0,0,0,163.48,17l6.36,0c3.87,0,7.76-.07,11.64-.08l.14.05a1,1,0,0,0,.83-.06h7.07a2,2,0,0,0,.29.1,2.84,2.84,0,0,0,1,.07c.24-.05.23-.12.42-.17h13a26.61,26.61,0,0,0,4.49-.28c-5.43-.1-10.9,0-16.34-.06,1.81-.35,3.64-.58,5.43-1.06l13.51,0a5.86,5.86,0,0,0-1.75.46l34.17.9c0,.05,0,.1,0,.15-.9.15-2.11.37-2.93.5s-.8.08-1.23.55h0s0,0,0,0,.06,0,0,.06-1.47.64-1.17,1c-5.59,0-11.12-.15-16.72-.26a113.71,113.71,0,0,1-11.85-.61,31,31,0,0,1-3.55,0l-.42-.08a24.38,24.38,0,0,0-5.81-.19h-.07a4.27,4.27,0,0,1-.89,0c-.47-.07-1-.43-1.41,0h0l-15.81.28a2.15,2.15,0,0,0-2.46.41l-.13,0c-.42.07-1.74-.16-2,.36a4.5,4.5,0,0,0,1.54.34c10.52.53,20.95.24,31.46.65,13.25.51,26.51,1,39.79,1.13,6.57.06,13.23.7,19.79,0l.39.06a58,58,0,0,0,13.65.3,77.59,77.59,0,0,1,10,.05c.92,0,.47.16.3.66-2-.07-3.79-.29-5.81-.19-7.1.35-14.26.66-21.39.88-8.82.26-17.67.08-26.49,0-4.28,0-8.54-.38-12.82-.16-.37,0-.73.08-1.1.06h0a13.19,13.19,0,0,0-3.94-.34c-1.94,0-3.87,0-5.81,0a5.49,5.49,0,0,1,2.37,1h.08a.58.58,0,0,1,.13.43c1.38.55,2.35,1.28,3.84.79h0a4.81,4.81,0,0,0,3.62,0h0c.8.39,1.53.06,2.35-.1h.08a6.43,6.43,0,0,0,1,0l.1,0c.2.07,1.08.32,1.26.35h.05s0,0,0,0q-2-.07-4.07-.17a1.65,1.65,0,0,1-1.23.68,30.79,30.79,0,0,0-7.9-.25c-2.33.16-3.57.42-5.42-1a8.59,8.59,0,0,0-2.25,1.14A133.44,133.44,0,0,1,196,25.17c-3.17.42-6.34.73-9.52,1.07a8.08,8.08,0,0,1,1.65-.7,71.06,71.06,0,0,1-12.25-.15A13.74,13.74,0,0,1,172.67,27,26.8,26.8,0,0,1,181,28.16,38.67,38.67,0,0,0,176.6,28a94.13,94.13,0,0,0,15-.34,1.29,1.29,0,0,1-.53.67c-7.53.21-15,.42-22.39.67-.27-.13-.54-.25-.82-.36a13.4,13.4,0,0,1-2.22-1.08s0,0-.08-.06-.16-.13-.24-.2a1,1,0,0,1-.22-.33,3.61,3.61,0,0,1-.16-.59,1.14,1.14,0,0,0,.24-.14c.55-.38.75-1.9-.65-1.2,0,0,0,0,0,0l-2.26.45c0,.13,0,.27,0,.4h0v0l-.16.07c-.68.31-2.47.93-3.15,1.17l-.18.06h0c-.3.05-.72,0-1,0a3,3,0,0,0-1.09.54,6.65,6.65,0,0,1-3.6.91,36.8,36.8,0,0,1-3.75-.82c-2.08-.7-4.43-1.93-6.05.11a1.13,1.13,0,0,1-.2.22c-.4.38-1.9-.24-2.45-.53-2.19-1.19-3.82-1-6-.05a23.27,23.27,0,0,0-6.86,2.69s.05.08.1.11c1.09,0,2.48-.09,3.5-.08a2,2,0,0,1,1,.3,14.06,14.06,0,0,0-2.65.32l-1.12.12h0a70.77,70.77,0,0,0-11.33.45h0c-1.47.1-2.11.27-3.27.39s-2.47.27-3.26.43c-1,.2-2.94.39-2.15.64h0c-3.91.18-5.38.54-3.72.89.18,0,.18.08.26.13h0c-.94,0-1.77.07-2.76,0v.13a13.45,13.45,0,0,1,1.35.09,3.75,3.75,0,0,1,.59.17c.23.15,1.67.29,1.23.44s-.23.26.66.37c-.38.07-1.39.15,0,.22h0c3.24.25,3.34.34.59.52-1.72.13-1.17.27-.09.41h0c.2.14-.12.3,1.54.39h0l.47,0h0s0,.06-.13.06c-3.27.16-4,.34-2.79.7h0A21.5,21.5,0,0,0,108,38h0c.17.08,1.45.16-.2.24-2.12.1-2.3.3-.67.51h0l.28,0-.28,0c.62.11-1,.13-1.19.2a8.84,8.84,0,0,0,1.27.06c.56,0,1.15,0,1.66,0,1.23,0,1,.1-.89.22h-1.7a14.68,14.68,0,0,0-2.29.07c-.28.09.84.12,1.48.15,1.44.08,1.33.17.19.26-3,.21-3,.24-.15.41a3.22,3.22,0,0,1,.47.07c-.64.19-1.82.37-.8.58a.63.63,0,0,1,.24,0l-.24,0c-.23.08.21.15.63.22.84.15,1.81.3.75.48a7.63,7.63,0,0,0-1.37.09c-.82.15-1.69.29.16.43s1.53.25-.09.37a5.63,5.63,0,0,0-1.12,0,6.65,6.65,0,0,0,1.6.1h0c3,.17,3.21.21,1.82.4h0c-.48,0-1,0-1.42,0-.9,0-2.62-.05-2.68.06a20.29,20.29,0,0,0,2.72.11c.12,0,.74.09.13.11-1.65.06-.84.12-.1.18l1.42.11c0,.21,1.61.27,3.42.31h0a12.35,12.35,0,0,1,1.49.26c.35.07.64.14.46.22-.85.1,0,.16.72.19,2.46.1,2.1.26,1.32.44h0c-.33.06-1.29,0-1.59.07h0c-1,.11-.93.22,0,.33.57.13,0,.3,1.42.41h0l.91.08h0s0,0,0,0c-3.43.19-4.26.41-2.78.75h0l.38,0h0a13.12,13.12,0,0,0,1.51.17h0c-.15.09,1.95.15.33.26-2.27.15-2.5.31-.83.54h0c.67.12-1.12.12-1.18.22l1.11,0a15.24,15.24,0,0,1,2.44.07,12,12,0,0,1-2.52.16h-.72a14.93,14.93,0,0,0-2.3.07c-.3.09.75.12,1.4.15,1.4.07,1.55.15.34.25l-.83,0c-2,.2-2,.2.34.36.6,0,.48.09.49.14-1,.22-1.3.44-.38.66h0c1,.18,2.53.36,1,.58h0c-.77,0-1.82.06-1.6.17-1.1.18-.22.3,1.45.4.62.1.51.19-.39.27a10.11,10.11,0,0,0-1.64.05c-.14.09.73.11,1.57.12h0a18.16,18.16,0,0,1,2.85.26h0c-1.15.21-3.76.11-5.82.21,1.29.06,2.33.09,3.44.1h0c.15,0,.66.08.3.1-2.23.1-.69.15.25.21h0a16.81,16.81,0,0,0,4.36.4c1.13.07,2,.17,2.63.28a17,17,0,0,0,2.73.25h.38c1.06,0,2.19,0,3.18.09,2.83.13,5.65.25,8.88.26a5.19,5.19,0,0,1,1.64.13h0l-1.86,0c-.68,0-2,0-1.63.1a14.51,14.51,0,0,0,2.14,0c1.22,0,2.45-.07,3.7-.07l-3.39.14c-14.08.63-28.39,1.12-42.53.83-3.44,1.88-6.7,1.34-10.38.79-1.71.47-3.49.43-5.19,1a17.86,17.86,0,0,1,5.08.82c.07.74.08,1-.59,1.34-4.26-.16-8.5-.51-12.76-.25,3.56.41,7.09,1.05,10.65,1.38-.26.33-.72,1-.06,1.11.79-1.29,2.37-1,3.64-1.16A3,3,0,0,1,87.1,61c-2.55.7-5.15,1.09-7.73,1.66,1,1.15,2.18,1,3.49.84a105.28,105.28,0,0,0,14.63.41c5-.18,10.31-.41,15.35-.23,1,0,1.12.48,2.32.42a87.29,87.29,0,0,1,16.18.26,14.86,14.86,0,0,0-1.62.11,14.67,14.67,0,0,1,2.31.14l.22,0h0l.3,0c2.63.33,5.9.79,8.69.11-2.14,0-4.32-.11-6.47-.28,2.38,0,4.76.15,7.13.27a4.65,4.65,0,0,1,3.21-.66c-.29.32-.16.54,0,.9a24.82,24.82,0,0,0-3.73.43l.63.14-5.26-.06a5.51,5.51,0,0,0-1.2,0c-1,0-1.92,0-2.87,0-4.7,0-9.4-.5-14.1-.29-7.54.33-15.1.25-22.62.25a31.24,31.24,0,0,0-6.7.5c-5.5.29-11-.78-16.22,1.47h0l0,0c-.15-.09.25.11-.16-.1a2.73,2.73,0,0,0-2.7.68l-.27.05c-.74.13-2.49.44-3.37.58-.6.09-.84.08-1.19.54,0,0,0,0,0,0h0l0,.1c0,.26.08-.55-.11.34-.29,1.3-.9,1.24,2.15.87,3.21-.39,7.73-.09,11.33-.13s7.6,0,11.31,0c0,.09,0,.17,0,.25l-9.41.44a4,4,0,0,0,1.4.34c7.78-.06,15.5-.07,23.27-.11,11.4-.06,22.75,0,34.21,0A31.56,31.56,0,0,0,144,71c-9.22-.13-18.48.15-27.71-.45a3.8,3.8,0,0,0-.83.1,10.65,10.65,0,0,1-5.16-.12,30.44,30.44,0,0,1-5.63.43,8,8,0,0,1-.92,0,28.75,28.75,0,0,0-7.6-.11c-.95.1-3.13.23-3.11-.73h.29c.94,0,2.27,0,3.53,0l61.16,0c.64,0,1.31,0,1.95,0,0,0-.07,0,0,0l.23,0a8.4,8.4,0,0,0,1.18-.19,3.13,3.13,0,0,1,.5-.07c.41,0,1.19,0,1.47,0h.12A11.21,11.21,0,0,0,165,70q8.92,0,17.84,0a5.42,5.42,0,0,0,.85-.1c2.74.11,5.46.19,8.21.24,1.51,0,3,0,4.56,0-.21.13-.42.26-.62.4a.67.67,0,0,0-.14.15c-3.48-.14-7-.38-10.46-.2-7.56.38-15.16.26-22.72.31a31.34,31.34,0,0,0-6.74.52,42.27,42.27,0,0,1-4.41-.16c-1.3,0-2.6,0-3.91-.13h2c-3.41-.21-6.76-.17-9.93,1.81h0l0,0c-.17-.09.26.1-.21-.13a2.75,2.75,0,0,0-2.66.72l-.3.07c-.72.16-2.5.46-3.39.59-.6.08-.85.09-1.2.54,0,0,0,0,0,0h0l0,.1c-.06.25.11-.55-.14.31-.41,1.45-.78,1.23,2.21.88,3.15-.36,7.78-.13,11.37-.17s7.64,0,11.36,0c0,.09,0,.17,0,.25l-9.45.47a4,4,0,0,0,1.41.34c7.81-.1,15.58-.09,23.37-.16l7.21-.06,0,.06h0s0,0,0,0,0,0,0,.05-1.43.82-1.13,1l-.22.12,20,.5-3.32.16a3.86,3.86,0,0,0,1.41.34c5.35-.05,10.65-.08,16-.09,0,.84.37,1.09,1.09,1.24h-.24q-6.47.36-12.95.8a1.17,1.17,0,0,0-.36-.15.76.76,0,0,1,0,.18c-.2,0-.39,0-.58,0l-9.06-.18a114.09,114.09,0,0,1-11.84-.6c-1.18,0-2.43.05-3.56,0l-.41-.07a32.16,32.16,0,0,0-5.8-.21c-.09,0,0,0-.06,0h0a4.22,4.22,0,0,1-.89,0c-.47-.07-1-.42-1.41,0h0l-15.79.3a2.08,2.08,0,0,0-2.46.41l-.13,0c-.42.05-1.75-.18-2,.38a4.58,4.58,0,0,0,1.55.34c10.49.5,20.94.22,31.41.6.82,0,1.64,0,2.44.08-.08,0-1.53.06-.51.13,1.29.09,1.63.14,3.38.19s5.28.12,7.37.16a2.36,2.36,0,0,1,.95.53,1.13,1.13,0,0,0-.44-.52c2.39.05,4.78.11,7.17.21a1.48,1.48,0,0,0-.88.19,5.62,5.62,0,0,0,1.32-.25l1.23,0a.47.47,0,0,1,.07.56,43.78,43.78,0,0,1,7.18.07c1.88.17,2.44.38,4.07.57H199.87c.14.19.37.34.24.59-.84,0-1.69,0-2.53,0-.09,0-.16-.08-.24-.1.56-.1,1.31.1,1.67-.47-2.42,0-4.83.13-7.24.35l.44.06c-.53,0-1,0-1.57,0-4,0-8,0-12.07-.2-6.93-.29-13.86-.73-20.81-.17a12.1,12.1,0,0,1-3.15-.17,3.89,3.89,0,0,0-3.07.26,4.89,4.89,0,0,0,.73.65l-2-.08a1.43,1.43,0,0,0,.27-.54L148,83.62c-.26.2-.61.41-.47.8l-6.8-.27a7.27,7.27,0,0,0-2.47-.36c0,.09,0,.18,0,.27l-2.5-.09c0-.15,0-.29,0-.44-1.19.11-2.37.18-3.56.22-.18,0-.4-.12-.58-.13-1.36-.08-6.06.88-5.3-1.57a12.89,12.89,0,0,0,5.56.1,4.93,4.93,0,0,0,2.35-.56c-.21.09-.51.19.13-.09,2.12-.92,6-1.38,8.23.05-1.88-1.29-3.66-1.46-6.06-1.48-.3,0-1.85,1.26-2.44,1.08,0,0,0,0,0,0l-.15-.08a2.31,2.31,0,0,1-1.34-1c-.67-1.51-2.47-1.3-3.79-1h0l-.15,0c-.48.06-1.57,0-2.16,0,0,0,0,0,0,0l-.09,0a1.23,1.23,0,0,0-.94,0c.1,0,.06.08-.76.54-1.78,1-6.73,1.33-9.08.13l-.14.07h0l-.34,0a18,18,0,0,0-4.39.82,29.94,29.94,0,0,0-4.85-.23c-1.65.15-3.07,1.36-4.49,1.72-.95.24-.68,0-1.44-.31C99.61,80,96.3,80.67,95.3,80.7c-1.32,0-2.82-.14-2.68,1.35l-.2,0c-.92.1,1.52-.16-.91.11a127.07,127.07,0,0,1-15.38.65A2.54,2.54,0,0,1,74.29,82l0,0c-.08-.12.18.2-.05-.11-.54-.73-2.7-.44-3.62-.2,0,0-.07,0-.09,0l-1.25-.4a18.75,18.75,0,0,0-2.37.48h-.1a2,2,0,0,0-1.15.46H65.5l-.51,0c-1.87-.1-6.44-.46-8.87.23a18.45,18.45,0,0,1-4.8.49,10,10,0,0,0-3.56.49l.1.07a5.7,5.7,0,0,0,2.1.37c.89,0,2-.24,1.64.91a2.37,2.37,0,0,0,2.44.68c2.31-.33,5-1,7.34.06,0,0,0,0,0,0l.07.26c.26.86,1.47,1.14-1.51.87a21.1,21.1,0,0,0-5.73.76,66.18,66.18,0,0,0,12.34.16h0c.06,0-.12-.05.06,0s1.87.52,1.66,1.17l-3.54.18c-3.65.17-7.25.3-10.89.41.16-.12.34-.22.5-.34-1.57-.21-3.36-.56-4.75.32-.76.48,1,.8,1.31.76.08,0,.47,0,.6,0-1.91.72-3.85.23-5.84.13-1.38,1.24-4.09.25-5.67.29A102,102,0,0,0,28.7,91.5a64.56,64.56,0,0,0,7.56.15,2.29,2.29,0,0,1-1.46,1.08,3.1,3.1,0,0,0-2.9.69,31.55,31.55,0,0,1,6.1.38,23.26,23.26,0,0,1-9.23.55,60.06,60.06,0,0,1-9.37.81c-2,1.43-4.33,1-6.62.87a12.14,12.14,0,0,1-3.93,1.76c.93.08,1.87,0,2.79.2a9.08,9.08,0,0,1-5.35,2c.32-.25.68-.44,1-.67a21.72,21.72,0,0,0-5.7,1.16c-1.09-.19-3.18,0,.49.35,5.82.54,10.61.26,16.06,1.86l-1.76,0,.14.06-1.45-.08h.07a55.9,55.9,0,0,0-9,.18c.26,0,.54.07.8.08.05,0,0-.07.08-.07.23,0,.44.12.67.13a20.86,20.86,0,0,1,5.68.57q-1.5,0-3-.06,3.31.21,6.62.36l-.21,0h2.12c-.09.06.28.07-.15.12,3.47,0,6.85,0,10.18,0l.16,0c1.86,0,2.78,0,3,0,13.87.32,27,1.21,42.1,1.66,7.81.23,17.67.43,27,.69l-30.1.11q16.53,0,33,0l5.09.16-.7,0c-12.22,1-24.33,1.42-36.51,2,0,0,0,0-.31.05-.56.18,1.69.29,2.69.26-9.35.72-17.08,1.41-16.06,1.11,1.48-.44-3.52.33-5.41.13h0l-.23,0-.88.09c-3.45.33-11.06.88-15.43,1-1.07.1-2.39.25-3.17.33-3,.31-5.7.45-8.62.71-.49.51-2.56.35-3.38.44-.4,0-1.59.19-2.17.23a101.08,101.08,0,0,0-11.62,1.45,30.5,30.5,0,0,0-4.88.69c.1,0,.12,0-.42.09-1.12.26-.87.54.48.49,1.66.36,3.32.75,5,1a13.09,13.09,0,0,0,1.73.13c1.65.06,3.34.06,5,.2l.92.08,1,.06,1,0c1.33,0,2.66,0,4-.11h0c.51.1,1,.19,1.53.27.27,0,.56.07.85.09.45,0,.91.05,1.36.07l1,0,2.56.07c10.19.69,20.39.34,30.59.58,1.07,0,2.14,0,3.21,0h1l1.51,0,3.45.06,2,0,1,0,3.62.07,5.36.1,2.75.05c13.65.16,27.3.5,40.95.7,2.16,0,4.34.08,6.5.11l2.08,0h1c.49,0,1,0,1.47-.05,1.77-.08,3.53,0,5.3,0-.46.13-.32.24.06.36l.08-.36.67,0c.4,0,.78-.08,1.18-.14a42.36,42.36,0,0,0,6.29.2,44.28,44.28,0,0,1,4.52.19c3.27.18,6.55.25,9.83.28a8.06,8.06,0,0,0,1,.09c.21,0,.42-.06.58-.06.82,0,1.58,0,2.39,0a1.13,1.13,0,0,0,0,.51l-.23,0-1,.08c-3.27.28-11,.77-15.26.63a2.6,2.6,0,0,1-1.86-.87v0h0l0-.15s-3-.78-3.7-.2c0,0-.06-.05-.09-.06-.42-.12-.83-.27-1.25-.4a10.46,10.46,0,0,0-2.36.48h-.09c-.24,0-.94.15-1.15.44-.1,0,.36,0-.14,0s.83.06-.59,0c-1.62-.1-6.51-.46-8.77.22a17.55,17.55,0,0,1-4.81.48,10.08,10.08,0,0,0-3.55.47l.1.07a5.69,5.69,0,0,0,2.1.38c.89,0,2-.24,1.63.92a2.37,2.37,0,0,0,2.43.69c2.31-.32,5-1,7.33.07,0,0,0,0,0,0l.08.27c.25.84,1.42,1.16-1.52.85a21,21,0,0,0-5.72.74,65.92,65.92,0,0,0,12.33.2l0,0c.11.08-.1-.09.14.1a7.82,7.82,0,0,1,1.42,1.59c.09,0-.65,0,.45,0,1.29.09,3.95-.2,5.74-.1,1.34.08,3.47,1.33,4.6-.07,0,0,.1-.17.43-.41.88-.64,4.17-.66,5.73-1a12.2,12.2,0,0,1,1.42,0c1.91.9,2.83.26,4.65-.28,0,0,0,0,0,0h0c.19,0-.32.09.2,0,.78-.16,3.59-.81,4.36-.07,1.33,1.28,2.34.89,3.86.86s3.32,0,4.73-.1c2.23-.1-2.1-1.14,1.53-.66a29.63,29.63,0,0,0,8.68.13c-.05,0-.1,0-.08-.06.43.23,1.76.8,2.13.64,2.19-1,5.07-.74,7-.77,1.42,0,1.78.08,2.51-.8-.08,0,0,0,0,0a8.82,8.82,0,0,1,4.34-.82,5,5,0,0,0,1.52-.21c2.82-1,1.13-1.35-.5-1.61-1.22-.19-5.75.83-5.4-1.44h.75a12.18,12.18,0,0,0,4.49.06c1.07,0,2.14,0,3.21,0,1.9-.08,3.8-.06,5.7,0l1.05,0c.71,0,1.43,0,2.13,0,2.88-.1,5.75,0,8.63,0,6.16.16,12.31,0,18.47.2l1.09,0,1.6,0c.7,0,1.41,0,2.1,0,2.26-.07,4.5,0,6.76.06l1.66,0,8.7.11a3.72,3.72,0,0,1,.49.2l.67-.18q8.22.14,16.43.23c2.56,0,5.12.07,7.69.09,1.16,0,2.32,0,3.47.08.15.17.28.15.51.16a1.75,1.75,0,0,0,.82-.1l1.15.05c-.14.08-.35.21-.18.38h0c.06,0,.26.3.21.47a1.35,1.35,0,0,1-.06.18c0,.07-.08,0-.13.11-.2.3-.13.48,0,.57q-7.67-.07-15.35-.17c-4.26-.06-8.51-.38-12.78-.18-.37,0-.73.07-1.1.07h0a13.16,13.16,0,0,0-3.94-.34c-1.42,0-2.85,0-4.27,0a2.77,2.77,0,0,1,.81,1h.11a.58.58,0,0,1,.13.43c1.38.55,2.35,1.28,3.84.79h0a4.79,4.79,0,0,0,3.61,0h0c.79.13,1.72.63,2.35-.1h.08a7,7,0,0,0,1,0s-.11,0,.09,0a3.54,3.54,0,0,0,1.3.37c.06,0,.06,0,0,0h0l-.08.07c-.19.18-1,.93-.06,1-.81.07-1.58.09-2.37.15a33.61,33.61,0,0,1,6.49.61,5.25,5.25,0,0,0-2.65.11,19.73,19.73,0,0,1,2.79.33c-1.57,0-3.12-.21-4.69-.2.56,0,.93.12.17.69-.77,0-2-.09-2.7-.12-1-.05-1.53-.1-2,.84a2.74,2.74,0,0,0,.91.52c.32,0,2.3,0,1.11.56-.88.44-2.35.22-3.25.82h0l-.23,0a8.18,8.18,0,0,0-3.54,0c-.85.37-1.63.9-.6,1.63,1.63,1.16,3.37,1.37,5.52,1.6,1.25.14,3.74.71,4.58-1.08.21-.44,1.33-.22,1.84-.14,3.06.47,5.25.71,8.21-.87,2.16-1.15,4.64-1.28,7.23-1.42,2-.11,4.38,0,6.57-.06,6.37-.08,12.59.38,18.93-1.44a12.82,12.82,0,0,1,2.86-.17c3.63,0,7.44-.25,11.09.48a7.89,7.89,0,0,0,2.77-.17c3.51-.61,7.6-.63,10.92-.91,2.44-.21,3.53,1,5.76.95s4.41-.68,6.68-.27c.77.14,1.62.34,2.41.41l1.29,1.85c.33-.94-.19-1.36-.9-1.82a37.07,37.07,0,0,0,7.05-.71l1.1-.19a5.59,5.59,0,0,1,.43.43,2.14,2.14,0,0,0,.44-.54,16.82,16.82,0,0,1,5.25.3c4.76.81,9-.35,13.77-.28a2.7,2.7,0,0,0,.82-.47.36.36,0,0,0,.08-.21c1.88.35,3.94,1.43,5.76,1.55,1.22.08,1,0,.52-.71,1.79,0,3.32-.53,5.16-.08a41.38,41.38,0,0,0,10.31.88c4,0,8.15,0,12.25.19a29.3,29.3,0,0,0,8.37-.69c7-2.29,14.23-2.34,21.52-2.46a33.93,33.93,0,0,0,7.37-.65c.81-.06,1.62-.1,2.43-.11a.81.81,0,0,0-.43.36q.75-.19,1.51-.34.83,0,1.65.11a3.72,3.72,0,0,0,.58.43,1.26,1.26,0,0,1,.18-.34,24.28,24.28,0,0,1,3.57.79c.86.3,2.22.63,2.73-.08.95-1.31,2.67-.74,3.52-.4,1.29.52,1.12.4,2.13,0a4.4,4.4,0,0,1,2.18,0c1.56-.26,3.13-.07,4.7-.29,2.11,0,4.23,0,6.34,0,0,.56,0,1.11,0,1.67-1.39.08-2.78.19-4.17.34-.18.61-.25.85.36,1.12a11.8,11.8,0,0,1,3.82-1.19q0,1.65.07,3.31a5.48,5.48,0,0,1,1.85.42c1-.26,2.15-.66,2.87.37,1.35-.36,2.71-.7,4-1.19.34.26.34.46.3.88a18.35,18.35,0,0,1,3.92.14c.64-.3,1.25-.63,1.89-.93.41.08,1.61.14.78.65,3.5-.42,6.92-1.37,10.42-1.81,1.17-1.77,3.07-1,4.76-.57-.23-.29-.8-.56-.33-.88a20.83,20.83,0,0,0,5,.08c.06.54-.34.8-.67,1.14,1.06-.12,2.13-.13,3.19-.31a6.89,6.89,0,0,1-1.9-.62c1.06-.12,2.12-.27,3.19-.32l.26.66c4.2-.56,8.43-.78,12.61-1.53A9.85,9.85,0,0,1,545,128a2.25,2.25,0,0,0-.81-.64c.49,0,5.82.79,4.34-.15,1.09.11,2.18.28,3.27.37-.43.11-.9.23-.77.74.06,0,.17-.07.07.07,1.44.23,3.74,1.07,4.55-.66a15.88,15.88,0,0,1-2.89-.15c.28,0,.56-.05.84-.1-.69-.13-1.3-.33-.28-.66-.35.76.94.62,1.37.62a9.93,9.93,0,0,1,2.43-.76.23.23,0,0,0,.12.26,6.58,6.58,0,0,0-1.53.76,47.64,47.64,0,0,0,6.85.14,13.76,13.76,0,0,1-3.63.53c.16.53-.37.69-.72.91a3.16,3.16,0,0,0,2-.5,3,3,0,0,1,1.92.61,3.11,3.11,0,0,0-1.55.27,9.21,9.21,0,0,1,4.12.54c3.46-.34,6.94-.44,10.4-.59a6.51,6.51,0,0,0,2.33-.25,16.38,16.38,0,0,1,4.24-.68,10.93,10.93,0,0,0,3.27-.21c.18-.07.47-.17,1-.31a38.2,38.2,0,0,1,12.38-.72c.11,0-.1,0-.14,0l.88,0a80.3,80.3,0,0,0,8.87-.22,16.31,16.31,0,0,1,5.51.28l-3.56.22a15.16,15.16,0,0,0-4.58.7h0a30,30,0,0,0-3.67.18l-.21,0a7.56,7.56,0,0,0-3.4.24,1.23,1.23,0,0,0-1.25,0l-.08,0a4.24,4.24,0,0,1-1.15,0s.35.07-.25,0-2.52-.49-3.32.3c0,0-.2-.2,0,.06s-.47-.41.2.32c1,1,4.49.45,6.13-.26a8.69,8.69,0,0,1,3.66-.23c.05,0-.11,0,.1,0s.75-.09,1.11-.09c0,0-.34.07.12,0s1.61.38,2.85-.12c2-.12,8.67-.66,11.32-.64a23.27,23.27,0,0,0,5,.18l13.9-.79a2.65,2.65,0,0,0,2.4-.1c.82.09,1.66.5,2.26-.05,0-.08.15-.26.62-.64,1.36-1.09,6.51-.84,8.38.59.09-.07,0-.06.07-.08s0,0,0,0c.63,0,1.25,0,1.88-.07.11-.75.48,0,.75-.41.26.26.54,0,.73.36l2.17-.07c1.79-.52,3.83-.24,5.63-.35,1-.06,1.82-.37,2.75-.37,6.73,0,13.56.07,20.22.12.61,0,1.3,0,1.91,0,8.2-.18,16.39-.28,24.64-.12,7.52.14,15.15-.74,22.68-1.11,6.91-.33,13.77-1.11,20.68-1.29,0,0-.07-.12.05.07a1.36,1.36,0,0,1-.11,1.24c-.09,0,.44-.09-.13,0s.94-.19-.65.15-6,.64-8.68.93c-3.71.4-8.55,1.5-12.5,1.38-.23-.09-.29-.23-.51-.31a2.73,2.73,0,0,0-1.36-.36h0s-.08,0,0,0h0a2,2,0,0,0-1.3.07h0c-.46-.05.74.06-.61-.07a44.94,44.94,0,0,0-9.45.24c-2.5.35-6.68,0-9.48-.14a20.87,20.87,0,0,0-2.58.43c-1.66.13-3.34-1-4.76.37h0l-.06,0a1.36,1.36,0,0,1-.94-.1c-.87-.16-1.66-.4-2.43.18h0c0,.05,0-.08,0,0a1.49,1.49,0,0,0,.21.46,1.3,1.3,0,0,0,1.6.72h0a1.91,1.91,0,0,0,1.35,0c.24-.1.11,0,.12,0,8.51.33,17-.34,25.53-.69,0,0,0,0,0,0s-.07,0,0,0,.62-.16.89,0a2.08,2.08,0,0,0,.35.37c.83.74,3.63.05,5.18-.31a38,38,0,0,1,8-.63c8.78-.05,18.09,3.07,26.21-1.93l.26,0c.9.12-1.55-.17.86.13,3.82.47,11.71-.52,16.25-1.72a64.71,64.71,0,0,0,10-1c-3.51-.62-7.16-2.23-10.08.59h-.17a5.52,5.52,0,1,0-.73,0c-2.59,0-9.66.54-12.78.8-2.13.18-1.67.2-2.59-1.19,0,0,.08,0,0,0s.11.07-.05-.07-1.45-.16-1.55-.63c3.07-.31,6.12-.2,9.11-1.14h.16c2.5-.66,8.72-1,10.43-1.11l.64,0H788l.17,0h0c2.27-.45,4.92-1.71,7.48-2.34a17.16,17.16,0,0,0-3.78.33c-.9,0-1.79,0-2.69-.11-3.48.06-6.95.24-10.42.49a22.5,22.5,0,0,0,3-.62,7.4,7.4,0,0,0,.7-.46c7.56-.34,15.17-.62,22.72-1.12,7.18-.47,14.28-.61,21.48-.81a117.2,117.2,0,0,1,11.83,0c1.16-.08,2.37-.19,3.48-.17l.36,0a30.06,30.06,0,0,0,5.83-.08c.07,0,0,0,0,0h0a3.9,3.9,0,0,1,.87,0c.45,0,1,.37,1.37-.08h0l15.26-1.06c.93.23,1.67.48,2.2-.53l.12,0c.29-.09,1.7.13,1.79-.45a9.38,9.38,0,0,0-1.67-.27c-10.38,0-20.57.8-31,.93-13.08.16-26.29.21-39.39.8-6.48.29-13-.14-19.46,1l-.4,0a56,56,0,0,0-13.57.34,71.56,71.56,0,0,1-9.93.42c-.91,0-.53,0-.64-.64,2,0,3.86.13,5.82-.08,6.89-.74,13.75-1.3,20.68-1.88,8.58-.72,17.34-.91,26-1.26,4.18-.17,8.5,0,12.57-.46l1.07-.12h0a14.5,14.5,0,0,0,4,.14q2.49-.13,5-.22a4.74,4.74,0,0,1-2-.87h-.09a1,1,0,0,1-.33-.42c-1.48-.53-2.62-1.5-4.13-.6h0a4.76,4.76,0,0,0-3.53.19h0l-.18-.1a2.88,2.88,0,0,0-.62-.22c.13-.38.44-.48.83-.59a32,32,0,0,0,7.88-.13c2.37-.28,3.65-.38,5.71.69a4.53,4.53,0,0,0,1.66-1.24,132.27,132.27,0,0,1,14.57-.5c2.91-.58,5.84-1,8.76-1.53-.33.43-.85.49-1.27.78a69,69,0,0,1,12-.46c.57-.92,1.55-1.19,2.37-1.78a31,31,0,0,1-8.68-.7,34.49,34.49,0,0,0,4.37-.11,89,89,0,0,0-14.44,1.09.8.8,0,0,1,.21-.7,29.87,29.87,0,0,0-6.27.89,159.09,159.09,0,0,0-16.9.87c-3.95.38-7.8.6-11.75.68a.56.56,0,0,0,.17-.76,4.12,4.12,0,0,0-1.12-.47c-.25.05-2.27.19-1.35-.5.68-.51,2.12-.25,2.8-1l.22,0a7.46,7.46,0,0,0,3.53-.15c.57-.29.69-.51.58-1.11,1.22-.35,2.45-.73,3.68-1.06,1.46,0,2.75.32,4-.5l.19-.13a2.88,2.88,0,0,1,2.25,0c1.48-.3,3-.44,4.44-.6a2.28,2.28,0,0,0,.49-.17c.24-.07.5,0,.59-.23a12.8,12.8,0,0,0,1.54.08,2.57,2.57,0,0,1,.51-.07,4.17,4.17,0,0,0,2.37-.36h0s-.05-.05,0,0-.15-.1.05.09,1,.11,1,.78c0,.46,1.88.5,2.26.3-.38-.41-.9-.69-.92-1.35l.27,0a9.3,9.3,0,0,1,3.48-.09c.37-.28.2-.4.05-.74,0,0-.06,0,0,0a.53.53,0,0,1,.6,0,7.69,7.69,0,0,1,1.37-.29c.09,0,.25.1.32.14s.11.15.14.19,0,0,0,0c-.2.29.17.4.35.17h.06a2.76,2.76,0,0,1,.62-.08c.43,0,1,.11,1.46.12a1.48,1.48,0,0,0-.06-.19l1.06,0a25.25,25.25,0,0,0,5.85-.52h0l.23,0c.84-.1,2.57-.3,3.59-.45.63.29,1.27,0,1.55.81.8-.91,2-.12,2.82.27a7.41,7.41,0,0,0,1.42.39,23.1,23.1,0,0,1-3.78-.31c-.25.2-.45.39-.73.58-.53-.17-2.16-.46-2.5-.09-1.84,2-3.68,1.37-6.07,1.45a49,49,0,0,0-9.41,1.17,5.44,5.44,0,0,0,.74.2,52.52,52.52,0,0,0,7-.09c5.78-.28,11.43-1.16,17.17-1.52a7.65,7.65,0,0,1,1.27.09c.24,0,.37.21.26.33-.26.29-.68.32-1,.54a.29.29,0,0,0-.07.44.82.82,0,0,0,.35.23,10.33,10.33,0,0,0,1.57.55,21.07,21.07,0,0,1,2.68,1l.09,0c.11.08.22.12.35.2a2.1,2.1,0,0,1,.38.31,2.61,2.61,0,0,1,.45.6l-.09.1c-.65.77,0,2.28,1.1,1.19h0l2-.56c0-.15-.15-.24-.16-.4h0s0,0,0,0l.15-.08c.66-.34,1.89-.94,2.64-1.41,0,0-.06,0,.08,0a6,6,0,0,0,.89-.05c.37-.1.52-.34.79-.58a4.32,4.32,0,0,1,3.09-1.09c1.35.24,2.72.28,4.05.62,2,.51,4.37,1.54,5.86-.43a.87.87,0,0,1,.19-.24c.39-.37,2,.16,2.57.4,2.19,1,3.84,1.09,5.88-.25a13.58,13.58,0,0,0,5.45-3,1,1,0,0,0-.15-.1c-1.07.06-2.38.22-3.4.26-.69,0-.94-.35-1.54-.35,0,0,0,.2,0-.12s.93-.8,1.25-1.14-.17-.69-.51-.65c-2.36.29-4.1-.58-6.62-.41-4,.28-8.7.77-12.8,1.21a24.72,24.72,0,0,0-6.58,1.29,12.49,12.49,0,0,1-7.27.48,19.87,19.87,0,0,0-3-.31c-.52-1.09-2.06,0-2.59-1.17a49.7,49.7,0,0,0,6.74-.32c-3.56,1.82-.69,1.44.9,1.71.63-.87-1.26-.87,1.26-1,.44,0,.5-.25.07-.46-.63-.3-1.32-.59-2-.89a13,13,0,0,1-7.15-.21,16,16,0,0,0-3.62-.37c-.1,0-.25,0-.17-.18.22-.37.86-.34,1.27-.36.11,0,.31-.06.47-.06a49.16,49.16,0,0,0,5.31,0h0l0,0c.1.09-.17-.13.1.09a3.72,3.72,0,0,0,2,.43c5-.14,9.93,0,14.87-.62.31,0,.62,0,.93,0a9.88,9.88,0,0,0,2.85,0,14.24,14.24,0,0,0,3.77,0H903c.1,0-.16,0,.13,0a3,3,0,0,0,1.72-.06h0s0,0,0,0H905c.36,0,1.2,0,1.75,0h6.53a1.06,1.06,0,0,0,1,0h0c.27,0,.59,0,.9,0s.66-.22,1-.25.59,0,.91,0a9.19,9.19,0,0,0,3.57,0l.19,0H921a34.45,34.45,0,0,0,4.49,0c3.28-.06,6.56-.17,9.82-.06a7.24,7.24,0,0,0,2.45-.28s-.09-.13-.11-.13c-.46,0,.12,0,.53,0h2.28a12.8,12.8,0,0,0-1.8.18,11.16,11.16,0,0,0,3,.27c3.85,0,7.9-.13,11.73,0,5.39.19,10.63-.16,16,.16a11.33,11.33,0,0,0,1.79-.1c1.7-.19,3.38-.19,5.09-.22a.18.18,0,0,0,.18-.15c0-.11-.16-.22-.26-.23a56.88,56.88,0,0,0-6.56-.36,6.66,6.66,0,0,0-1.33.33,8.93,8.93,0,0,1,1.24-.47c.59-.09,2.59.07,2.56-.84,0-.31-.86-.31-1.07-.34l13.45-.07c1.51-.05,3.83.25,4-1.83,0-.42-.17-.56-.29-.92-.06-.18-.46-.19-.61-.22.38-1-1.75-.63-2.48-.64-.46,0-1.58,0-2.15,0,1.7,0,3.43-.08,5.14-.24C989.31,89.36,988.09,89.12,987.39,89ZM889.22,63.56h0S889.21,63.56,889.22,63.56ZM932.08,56c1.21,0,2.42,0,3.63,0h-5.22Zm-29.66,5.39s0,0,0,0S902.45,61.3,902.42,61.37Zm-.37.06.29,0a5.17,5.17,0,0,1-.65.05c-.68,0-1.55,0-2.28,0Zm62-46.78h0l-.11,0Zm-8.23-1.06s0,0,0,0,0,0,0,0Zm-4.79,15.79a1.33,1.33,0,0,1-.68.44A1.33,1.33,0,0,0,951.06,29.38Zm-.34-.42a4.85,4.85,0,0,0-.89.51A4.85,4.85,0,0,1,950.72,29Zm-10.39,7.39a20,20,0,0,1-2.28.1A20,20,0,0,0,940.33,36.35Zm-15.75,5.85h0Zm-3.64.85a5.5,5.5,0,0,0,.73.2,17.65,17.65,0,0,0,2,.18,3.06,3.06,0,0,0,1-.2c.4,1.34-.9,1.21-2,1.25s-2.47-.14-3.36.66C919.83,44.28,920.82,44.15,920.94,43.06Zm-8.66-.77c-.13.11,0,.19-.19.32a2.47,2.47,0,0,1-1,0c-.13-.11-.21-.11-.32-.21Zm-5.54,1-.6.14A1.25,1.25,0,0,1,906.74,43.27Zm-14.39,3.42c1.54,0,3.07.05,4.61.13,3.46-.58,6.94-.89,10.39-1.52-1.38,0-2.75.12-4.13.19,2.82-.27,5.62-.66,8.43-1a4.2,4.2,0,0,0,.78-.35c1.89.17,3.5.1,4.91,1.66l0,0A24.26,24.26,0,0,0,914,46a42.07,42.07,0,0,1-8,.37,16.15,16.15,0,0,0-5.55.51c-3.17.34-6,.41-8.33,3-.05,0-.09,0-.14-.06a1,1,0,0,1-.14-.26h0l0-.06c.12-.23-.12.33.18-.28s-.74-2-1.87-1.59A6,6,0,0,1,892.35,46.69Zm-2.28,3h0ZM129.81,14.5c0,.08,0,0,0,0h0Zm-25.1,10a8.67,8.67,0,0,0-1-.24c-.95-.13-1.93-.24-2.89-.29a8,8,0,0,0-1.65.14c.21-1.57,2.19-1.13,3.64-1.12s3.79.21,5.26-.47C107,23.29,105.54,23.25,104.71,24.46Zm32.44-1.39c-6-.2-12.07.22-18.1.48a11.22,11.22,0,0,0-1.32.3c-2.2-.2-4.71.08-6.25-1.89l0,0c1.62.08,3.28.11,4.89,0a89.41,89.41,0,0,1,11.71.05,34.89,34.89,0,0,0,8.07-.22c4.49-.2,8.71-.3,12.78-2.59,0,0,.12,0,.15.06s0,.21.06.27h0l-.07.07c-.26.25.36-.38-.33.31s-.29,2,1.57,1.61C145.92,22.71,141.57,22.5,137.15,23.06Zm14.38-3.53h0Zm6.32-3.1,3.42-.1-.83.14A7.23,7.23,0,0,1,157.85,16.44Zm3,.74h0l0,0a1.68,1.68,0,0,0-.34-.1h.88Zm3.3-1.63h3.53a10.64,10.64,0,0,1-2.72.09Zm25.37.94-.12,0c-2.84-.07-5.65-.21-8.48-.42a3.28,3.28,0,0,0-.83.11,9,9,0,0,1-5.19-.13,25.87,25.87,0,0,1-5.67.52,6.37,6.37,0,0,1-.91,0c-.83-.16-1.58-.3-2.39-.39,1,0,2.11,0,3,0a11.84,11.84,0,0,0,4.48-.6h7.73a16.38,16.38,0,0,0,5.51.61,2.65,2.65,0,0,0,1.89-.62h2.08A1.72,1.72,0,0,1,189.5,16.48Zm-10.13,2.14Zm67.95-2.29,0,0h0Zm0,0h0l0,0h0Zm.49-.18-.3.11-.06,0h0l.06,0-.1,0h0l.4-.14-.41.14h0l-.05,0c-.23-.12-.59,0-.88,0a17.1,17.1,0,0,1-2.62,0l-1.18-.19c-3.61-.56-10.25-.28-15-.34-3.8,0-9.2-.32-13.19-.28,2.72,0,5.59,0,8.35,0a22.55,22.55,0,0,0,3.55-.34h1.87a9.5,9.5,0,0,0,1.6.3q8.95,0,17.88,0a11.09,11.09,0,0,0,1.58-.28c-.1,0-.24-.09.37.05.29.07.72.22,1.21.38A20.25,20.25,0,0,0,247.8,16.16ZM255,15.08c0,.11-.15.16-.08,0h0v0H255a.13.13,0,0,0,0-.06h0a2.06,2.06,0,0,1,.36-.36c.85-.7,5-.69,6,.54A24,24,0,0,0,255,15.08ZM179,26.94a2,2,0,0,1,.58-.18A2,2,0,0,0,179,26.94Zm1.25.36a2.88,2.88,0,0,0,1.24-.27A2.88,2.88,0,0,1,180.29,27.3Zm-73.71,9.18h0Zm.1,3.71h0Zm2.44,1.1h.47l.05,0Zm1.43,1.61h0Zm.52.48h0Zm0-1.11h0Zm1.45-8.82h0ZM113,40h0Zm3.4,6.87h0Zm-3.55,2h0Zm5.5-3.37h0Zm1-6.74h0Zm.43,1.6h0Zm1-3.77h0Zm.07,14.6h0ZM123.69,34h0ZM65.31,69.23c0,.07,0,0,0,0h0Zm66.34,5.39c0,.07,0,0,0,0h0Zm4.86-1.19s0,0,0,0Zm47,2c-.76.14-2.47.44-3.43.59a2.86,2.86,0,0,0-.91.23,7.79,7.79,0,0,1-2.39-.46,30.66,30.66,0,0,1-5.66.44,8,8,0,0,1-.92,0,28.91,28.91,0,0,0-7.64-.09c-1,.11-3.13.28-3.12-.72,0,0-.31,0,.29,0,.91,0,2.33,0,3.58,0l20.58,0a.83.83,0,0,1-.14.08ZM180.24,82s-.06,0,0,0h.13S180.25,82,180.24,82ZM39.07,92a3.77,3.77,0,0,1,.95.09A3.77,3.77,0,0,0,39.07,92Zm33.34-5.22a8.79,8.79,0,0,0-1-.23c-1-.12-1.95-.23-2.9-.27a8.07,8.07,0,0,0-1.66.15c.21-1.57,2.2-1.15,3.66-1.15s3.82.18,5.29-.5C74.75,85.57,73.24,85.54,72.41,86.76Zm47.11-5.24h0Zm-2.42,0h0l-.06,0c-.14.09,0,0,.05,0ZM84.77,87.9c.22-.09.08-.2.43-.31a4.8,4.8,0,0,1,1.4.06c.18.12.23.12.37.22Zm8.51-.74.94-.12A3.26,3.26,0,0,1,93.28,87.16Zm7.57,19.16s-.3-.05.25,0h.06l.58,0h-.89Zm8-22.27c-5.13.47-10.27.58-15.4,1.07,2,.06,4,0,6,0-4.2.16-8.4.43-12.59.64a11.43,11.43,0,0,0-1.32.31c-2.21-.18-4.73.12-6.3-1.85l0,0c1.63.06,3.3.09,4.92,0a90.66,90.66,0,0,1,11.78,0A35.38,35.38,0,0,0,104,83.9c4.52-.23,8.76-.36,12.85-2.67,0,0,.12,0,.16.06s0,.19.07.26l-.24.17c-1.93,1.35-.27,1.76,1.39,1.86a15.59,15.59,0,0,1-3.31.79Q111.9,84.26,108.87,84Zm13.8,22.81c-2,0-3.85-.06-5.64-.11l8.57.14Zm17.39-2.06h0Zm15.5-20.06s.09,0,.14,0a3.32,3.32,0,0,1,.49.06Zm2.21.08a1.35,1.35,0,0,0,.23-.11h3.45c.09.07.06.16.1.24Zm-16.41,35.25Zm5.5,5.1a8.9,8.9,0,0,0-1-.23c-.95-.12-1.94-.23-2.89-.28a8,8,0,0,0-1.65.14c.21-1.57,2.2-1.14,3.65-1.14s3.81.2,5.28-.49C149.19,124,147.69,124,146.86,125.16Zm29.41-40.29h.06l.88.09-1.08,0a1.24,1.24,0,0,0,.13-.12Zm.4,35.56a4,4,0,0,1-1,.29c-.63.1-.85.14-1.27-.32C175.18,120.43,175.93,120.44,176.67,120.43Zm2.74,3.22c-6.06-.18-12.1.26-18.16.55a11.33,11.33,0,0,0-1.32.31c-2.2-.19-4.72.1-6.27-1.87l0,0c1.62.07,3.29.1,4.91,0a89.23,89.23,0,0,1,11.75,0,35.2,35.2,0,0,0,8.1-.25,43.05,43.05,0,0,0,11.38-1.7l.93,0c-1,1.32,1,1.31,1.82,1.44C188.19,123.24,183.79,123.11,179.4,123.65ZM267.75,131a8,8,0,0,0,4,.42A6.17,6.17,0,0,1,267.75,131Zm8.76-2.75c-.07,0-.08-.12-.13-.16a4.32,4.32,0,0,1,.63.16A4.15,4.15,0,0,1,276.51,128.21Zm321.46.53h0Zm7.68,0h-.23C606,128.76,605.86,128.77,605.64,128.78Zm124.57-1.69h0l.71.19A3.3,3.3,0,0,1,730.22,127.1ZM868,114.24Zm-98.36,5.52.46,0c1.74-.16,3.49-.25,5.24-.34-1.9.14-3.8.27-5.7.38Zm93.06-14a1.7,1.7,0,0,0-.79.3A1.7,1.7,0,0,1,862.67,105.73Zm-67.51.68c-.89.11-1.78.17-2.67.21ZM566.37,126.32l.38.15-.39.23-1.24-.09Zm-55,.87c0-.19.44-.49.6-.66a.82.82,0,0,1-.61.74S511.34,127.37,511.38,127.18Zm-212.46-3.62h0Zm-17-54-.17,0c-2.62.11-5.25.17-7.87.37l-1.35-.38h9.38ZM147.86,53.19h0Zm-2.16-.27h0Zm-.49-.18h0Zm-3-.58h0Zm54.18-22.61h0Zm1.68,1-.48,0a.16.16,0,0,0,.1-.05Zm-.21-.91a1.31,1.31,0,0,1,.28,0l-.08,0Zm.46,1h0Zm-28.26,22h0ZM140.34,49h0Zm1.95-15.69h0Zm2.4,5h0Zm2.87,0h0Zm.91.75h0S148.46,39,148.47,39ZM149.54,37h0Zm.5,4.66h0Zm10.76-3.37h0Zm1.47-.31h0Zm5.34-3.5h0Zm2.34-1h0Zm3.52.93h0Zm9.29-1.15h0Zm-7.32-.49h0Zm-12.64,5.54h0Zm9,2.44h0Zm-15.63,1.31h0Zm-1.23-3.54h0Zm-4.15,4.25.27,0h-.16Zm10.86,6.06h0Zm-7.18,1.05h0Zm-7.31,0h0Zm-1.47.35h0Zm-1.46-1.2h-.13L144,49Zm46.25-15.61h0Zm.24-.91h0Zm.32.74h0Zm0,.89h0ZM137.9,38.64h0Zm-2.44-.13h0Zm-4.32,2.39h0Zm.43-7h-.09C131.28,33.93,131.62,33.93,131.57,33.95Zm72-1.56h0Zm5.45.18h0Zm1.07-3.24h0Zm.48,1.29h0Zm0-.49h0Zm3.82,1h0Zm4.91,0h0Zm4.8-1.77h0Zm.58-1.38h0Zm83,.61a21.45,21.45,0,0,0,2.28-.17c1.67,0,3.35,0,5,0a26.35,26.35,0,0,0,6.89,0h.31l1,0c2.46,0,4.95,0,7.42,0a2.42,2.42,0,0,0,.92-.08,5.39,5.39,0,0,0-.92,0h0c.23-.07,1.07-.15-.53-.17H323.6l.57-.1.84-.15,1.19,0-.88,0,.74-.11h4.17c.42.08.85.24,1.21.3a29.83,29.83,0,0,0,7.08,0h3.14c2.22,0,3.45-.07,3.57-.28H349a9.84,9.84,0,0,0,2.81.68c1.16,0,1,0,.55-.67,2,0,4.07,0,6.08.06-1.19.08-2.53,0-3.76.07-.48,0-1,0-.94.08a4.45,4.45,0,0,0,.93.05c1.6,0,3.22,0,4.74,0a36.45,36.45,0,0,0,7,.45,22.56,22.56,0,0,1-3.2.08,42.36,42.36,0,0,0-6.36.15c-.4-.06-.78-.11-1.19-.14l-.67,0-.07-.36c-.37.11-.53.22-.06.36h-1.71l-1,0h-.22c-.54,0-1.72,0-2.46-.06-.42,0-1,0-1.47-.06h-1l-2.09,0c-2.18,0-4.36.11-6.54.13-5,.05-9.93.14-14.89.24-4.69-.19-9.58-.23-14.42-.06-2.79.1-5.49.11-8.3.1l-7.27,0-.5,0a21.78,21.78,0,0,0-2.34-.09h-.4l.66-.11c3.52-.61,7.63-.63,11-.92C304.3,27.36,305.41,28.54,307.63,28.52Zm22.44-.43h0Zm14.65-.4h0ZM315.9,28.8h0Zm74-1-1.35,0,.61-.19h.34ZM277,28.22c3.51,0,7.18-.23,10.73.4-4.56,0-9.11,0-13.67,0h-.79l.88-.22A12.87,12.87,0,0,1,277,28.22Zm-13,0a7.09,7.09,0,0,1-2.07.1c-.45,0-.95-.08-1.42-.07a16.73,16.73,0,0,1-2.84-.19l-.77-.11.57-.07c2.66,0,5.3,0,8,0Zm-8.55-.2a4.24,4.24,0,0,0-.44.14l-.33.14h-.55c-.46,0-1,0-.93.09a4.91,4.91,0,0,0,1.09.05,4.4,4.4,0,0,1-.53.16H252a8.55,8.55,0,0,1-1.48-.38c.67.08,1.35.18,2,.3a.91.91,0,0,1,.4-.6l2.11,0Zm-10-.69c-3.49,0-7,.2-10.45.34h-.15c4.18-.46,8.37-.66,12.57-.8A14,14,0,0,1,245.42,27.32ZM223.12,70.5a13.64,13.64,0,0,1,7.44-.11,15.59,15.59,0,0,0,1.89.37l-10.21,0C222.54,70.72,222.82,70.59,223.12,70.5ZM794.77,62l0,0h0Zm-.56.68h0Zm-1.49.09h0Zm-1,2.44h0Zm-2.93-2.48h0Zm-3.23.41h0Zm-8.43,3.23h0ZM770.84,65h0Zm-2.29.18h0Zm-16.67.54h0Zm-.44-.53-.1,0-.14,0Zm-1.93.35-.69,0A3,3,0,0,1,749.51,65.52Zm-3.62-.3h0ZM740,66.95h0Zm-5.88-3.28h0Zm-11.72.58h0Zm32.94-1.77h0ZM737.64,66a.11.11,0,0,1,0,0h-.09Zm7,1h0Zm18.22-.82h0Zm65.29-12.65h0Zm13.37-2a22.08,22.08,0,0,0-2.65,0c-.41.11,1.26.15,2.39.18l-1.17,0c-.67,0-1.43,0-2.1,0a2.47,2.47,0,0,0-.33,0h-.16a4.07,4.07,0,0,1,.41-.16,8.36,8.36,0,0,0,2.16-.33l1.17,0,7.62.16c-1.85.07-3.7.15-5.56.2C842.85,51.55,842.18,51.53,841.54,51.52Zm8.64-.57a4.69,4.69,0,0,1-1.12,0,5,5,0,0,0-1,0,4,4,0,0,0,.72.1h0l-.54.09c-2.09-.08-4.36-.08-6.56-.12-.47,0-1,0-1.43,0a.47.47,0,0,0,.11-.24l.7,0c1.74-.06,3.14,0,4.73,0,1,.08,2.39,0,3.49.06C849.8,50.85,850.4,50.88,850.18,50.94Zm-103.09,51,.14,0h0l-.14,0S747.07,101.89,747.09,101.9Zm52.27,7c3.44-.19,6.86-.54,10.3-.86-4,.68-8,1.07-12,1.4A9.79,9.79,0,0,1,799.36,108.85Zm78.2-42.52h-.35a.39.39,0,0,0,0-.15h.7Zm3.05,1.22h0c.34-.09-.56-.11-1.22-.14a.55.55,0,0,0,0-.12h.07a20.28,20.28,0,0,0,2.16,0A2.71,2.71,0,0,1,880.62,67.55ZM878.11,66l-1,0h0l1-.05Zm-.63-.28h0Zm7.56,1c.24,0,.84-.08,1.2-.1l.39,0c1,0,2,0,2.94,0C888.06,66.7,886.55,66.72,885,66.74Zm1.25-.72c.35,0,.89,0,.69.07l-.14,0a15.31,15.31,0,0,0-2.75.28l-2.93,0c.44-.08.87-.18,1.31-.3-.34,0-.69,0-1-.08Q883.79,66.09,886.29,66Zm-2.91-1h0Zm-5.32-3.1h0l-.32-.05h.47a2.84,2.84,0,0,0,.35.08Zm-9.32-8h0Zm12.72-1.39-2.89-.09-.58-.07c.72-.06,1.92,0,2.45-.13h0l.46,0A2.35,2.35,0,0,0,881.46,52.53Zm-7.2-40.78h0s0,0,0,0Zm-15.61,36s-.07,0-.11,0a2.28,2.28,0,0,1-.39,0Zm-2,0a1,1,0,0,0-.17.12h0s-.24,0-.3,0,0-.09-.06-.12ZM848.1,7.34a10,10,0,0,0,1,.19c.92.08,1.9.15,2.82.15a5.92,5.92,0,0,0,1.47-.21c.46,1.49-1.57,1.24-2.85,1.28s-3.47-.12-4.7.71C846.49,8.58,847.88,8.56,848.1,7.34Zm4.44,43c1.33-.06,3.53.3,3.88-1.47l.7-.11a10.58,10.58,0,0,1,2.87,0,2.61,2.61,0,0,0,2.59-.38,8.62,8.62,0,0,0-.95-.61h1.8a1.11,1.11,0,0,0,0,.54l2.38.26c.17-.29.27-.52,0-.81l5.86,0a6.22,6.22,0,0,0,2.19.27l-.14-.26h2.12l.16.44c1-.15,1.9-.28,2.87-.33.17,0,.34.1.54.1,1.61,0,4.59-.94,5,1.37a8.63,8.63,0,0,0-4.57.08,4,4,0,0,0-1.57.53s-.13.15-.63.45a8.5,8.5,0,0,1-5.64.43,11.14,11.14,0,0,0,4.8.85c.27,0,1.16-1.14,1.59-1.19.07,0-.19-.1.15,0a3.14,3.14,0,0,1,1.53,1,3.24,3.24,0,0,0,.55.58l-.77,0-8.22-.36c-.8-.06-1.68-.11-2.59-.16a.39.39,0,0,0,.3-.35,6.64,6.64,0,0,0-1.43-.29c-3,0-6,0-9.07.12q-7.72-.4-16.13-.68ZM835.16,8.92a7.22,7.22,0,0,0,1.09-.36c2.41.13,4.69,0,6.7,1.58l0,0c-.78,0-1.55,0-2.33,0l-18.09,0C826.76,9.82,831,9.35,835.16,8.92ZM727.35,7.1a9.53,9.53,0,0,0-4.17-.22A7.44,7.44,0,0,1,727.35,7.1Zm-119,3.82.08,0h0a.72.72,0,0,1-.16,0S608.37,10.91,608.39,10.91Zm-7.81-.39.06,0h-.08S600.57,10.52,600.58,10.53Zm0,.61h0s-.07.06-.1.05a.91.91,0,0,1-.13-.06ZM489.87,10l.92.05c-.32,0-.64.11-1,.18A.29.29,0,0,0,489.87,10Zm-17,2.71h0s-.06.07-.1.06-.1-.05-.13-.07Zm-10.55,2.7h0ZM438.52,9.33h.66c-.11,0-.54.16-.72.19A2.08,2.08,0,0,1,438.52,9.33Zm-3.28-.68h0ZM372.7,26.52l0,0a26.36,26.36,0,0,1-3.4.06ZM362.56,11.87h0ZM346,27l1,0,1.12.4h-2.64l.31-.19h.33a4.33,4.33,0,0,0,.68,0c.09,0-.35-.07-.75-.07h-.1S346,27,346,27ZM309.61,14h0l0,0,0,0ZM296.52,26.63l-2.07,0h0Q295.48,26.62,296.52,26.63Zm-31.49.8-3.82.06Q263.12,27.4,265,27.44Zm-5.15-2.51,2.14,0q-1.45.31-2.9.59C259.37,25.29,259.63,25.11,259.88,24.93Zm-14.7-.25h0c2.12.09,4.19-.34,6.32-.2.45,0,.94.17,1.41.2l-8.24.26c-3.74.11-7.74.11-11.54.06a.83.83,0,0,1-.13-.11Zm-47.41,3.13a165.67,165.67,0,0,0,17.34,0c4.06-.17,8-.21,12.08-.09l0,0-4.35.06c-8.37.11-16.64.28-24.9.45-.8,0-1.64,0-2.4,0l-1.64,0C195.16,28.2,196.46,28,197.77,27.81ZM177.9,30h0Zm-1.7-.17h.23l-.24,0S176.2,29.79,176.2,29.78Zm-14.78-2s-.07,0-.08,0,0,0,0,0,0,0,0,0c.47.4-.1.61-.45.77a1.29,1.29,0,0,1,.25.81l-.83,0-1.1,0c.61-.37,1.2-.75,1.83-1.05C161.4,28.19,161.56,28.12,161.42,27.78Zm-22,1.6c.23-.93,1,0,1.66-.14a4.77,4.77,0,0,0,2.63-.57c-.1.49-.38.44-.89.57-.69.17-1.73.4-2.52.56-.29.06-.63.13-.92.21C139.49,29.82,139.42,29.54,139.46,29.38Zm-14.27,8.2h0Zm.23.84h0Zm1.76.35h0Zm-1-1.46h0Zm-.72-4.18h0Zm1.36,17h0Zm1.68,1.14h0Zm.61-2.3h0Zm2,1.19h0Zm5.34,0h0Zm1.39,3.06h0Zm8.8,12.32c-.07,0-.06.09-.15.12a1.78,1.78,0,0,1-.31,0,11,11,0,0,0,1.09-.56l.19.07A4.42,4.42,0,0,0,146.62,65.46Zm67.71,14.4.53-.09a23.36,23.36,0,0,1,4.94-.1Q217.07,79.74,214.34,79.85Zm15.82-2h-.23l-5.56.08c-.08,0-.15-.08-.24-.08s-.38.09-.58.09l-7.22.11a28.38,28.38,0,0,0-5.19-.06c-1.5-.18-3-.28-4.51-.33a.38.38,0,0,1,.18-.24h.25c.95,0,2.32,0,3.58,0l30.68,0C237.61,77.75,233.88,77.78,230.16,77.88Zm22.72,20.5-1.83.07S256.91,98.15,252.88,98.39Zm30.87-27.65H282.2a10.19,10.19,0,0,1,1.9-.31A1.77,1.77,0,0,1,283.75,70.73Zm-2.91,0q-18.61,0-37.22,0c2.12-1,4-.74,6.28-.71a66.64,66.64,0,0,0,9.1-.49h6.63l3.74,0a2,2,0,0,0-.27.46,12.13,12.13,0,0,1,5.5.58c3.31-.23,6.59-.68,9.92-.62A14.74,14.74,0,0,0,280.84,70.74Zm4.79-1.06-1.1-.12h1.15A.82.82,0,0,0,285.62,69.68Zm.68,1.05h-.24l.2,0S286.34,70.73,286.3,70.73Zm-11.09,54.7,12.13-.2h0s0,0,0,0c2.14.14,4.15-.39,6.32-.17a53,53,0,0,0,5.7.45,1.92,1.92,0,0,1-.1.18c-4,.39-7.94.59-12,.64-2,0-4,0-6,0S277.16,126.46,275.21,125.43Zm48.76,2c-6,.08-12,0-17.93,1.42a8.56,8.56,0,0,1-2.06.09c-.46,0-.95-.08-1.41-.08a17.44,17.44,0,0,1-2.83-.19,8.13,8.13,0,0,0-1.41-.15,3.68,3.68,0,0,0-1.24.24,4.73,4.73,0,0,1-2,.54c-1.85-.09-3.17-1.07-5.16-1.25a88.24,88.24,0,0,0-9.7,0,53.75,53.75,0,0,1,8.82-1c3.67-.11,7.54-.23,11.23-.65a6.86,6.86,0,0,1,.94.16,1.87,1.87,0,0,0,1,.21,15.93,15.93,0,0,0,2.81.42,3.24,3.24,0,0,1,.58,0,3.93,3.93,0,0,1,.52.26l.71-.26c2.29,0,4.56,0,6.85.06s4.58-.1,6.87-.21c1.23.08,2.45.12,3.68.1l.62.19Zm6.36-.07-3.37,0a.5.5,0,0,0,.08-.23h0a12.52,12.52,0,0,0,2.29-.07,12.06,12.06,0,0,0,1.47.22C330.65,127.28,330.47,127.33,330.33,127.33Zm75.28,0a15.16,15.16,0,0,1,1.87-1,5.82,5.82,0,0,0,4.56,0c.7.8,1.79.69,2.66,1.18C411.67,127.59,408.64,127.29,405.61,127.33Zm102.8,1.11a.31.31,0,0,1,.27,0,.52.52,0,0,0-.27,0S508.39,128.48,508.41,128.44Zm.47,1.7c.55,0,1.09,0,1.62,0C510,130.18,509.44,130.15,508.89,130.14Zm-.38-1.67a15.43,15.43,0,0,0,3.75-.51A15.41,15.41,0,0,1,508.5,128.47Zm8.12-4.32a11,11,0,0,0,1.86.14A11,11,0,0,1,516.62,124.15Zm1.85-.8a.76.76,0,0,1-.67.08,5.51,5.51,0,0,1,.69-.12S518.55,123.24,518.47,123.35Zm44.06,5.54a4.68,4.68,0,0,1,.89.23A4.7,4.7,0,0,0,562.53,128.89Zm1.19-2.38c-1.27-.07-2.54-.1-3.81-.05a15.62,15.62,0,0,1,4.29-.08A3.6,3.6,0,0,1,563.72,126.52Zm1.27,2.41a.86.86,0,0,1,.07-.56A.86.86,0,0,0,565,128.93Zm-.41-1.3c1-.1,2-.23,3-.33.28,0,.61,0,.9-.08A15.24,15.24,0,0,1,564.59,127.63Zm5.77-2.64a1.86,1.86,0,0,0,0-.82A1.85,1.85,0,0,1,570.36,125Zm.25-.81h.2a10.71,10.71,0,0,1,2.65.36C572.54,124.6,571.18,125.33,570.61,124.18ZM595,126.34a1.26,1.26,0,0,1,.35-.19.82.82,0,0,0,.09.24Zm63-11.24a25.35,25.35,0,0,1-4.27,1.62h-.43a2.1,2.1,0,0,0,1.44-.52c-2.92.31-5.86.31-8.77.64,2,.08,3.94.16,5.9.32-.36.06-.73.16-1.09.2-1.43.16-2.84.33-4.25.58,0-.62.21-.7-.46-.88-3.62.23-7.23-.2-10.85.05.32,0,2.38,0,1.91.36-1,0-2-.18-3-.31-2.8,1-5.67,1-8.58,1.31a11.15,11.15,0,0,1-2.21-.8,19.67,19.67,0,0,1-6.55,1.22c.59-.66,1.52-.55,2.29-.8a78.79,78.79,0,0,0-9,1.8,18.92,18.92,0,0,1-2-.58c-.9,1.84-3.54,1.51-5.22,1.62-.22-.48-.41-.84-.13-1.35a7.85,7.85,0,0,0,3.09-.38c-.65-.69.4-1,.88-1.41.39,0,1.18,0,.9.64,4.2-.42,8.42-.65,12.62-1.06-.16.47,0,.55.44.66-.15-.54.86-.54,1.19-.74-.19-.09-.39-.17-.44-.41.3,0,.6,0,.9,0,1.84,0,3.68-.14,5.51-.25,8.9-.32,17.78-.83,26.67-1.37,1.2,0,2.39-.11,3.58-.23Zm16,.48,0,0a24.57,24.57,0,0,1,3.33-.23Zm75.3-3.64,2-.12h0C750.76,111.88,750.07,111.92,749.38,111.94Zm18.48-2.49c-3.61.16-7.48.58-11.15.07a7.29,7.29,0,0,0-2.66.31c-3.38.82-7.2,1-10.46,1.44-2.39.34-3.92-.77-6.13-.67s-4.25.85-6.47.59a26.54,26.54,0,0,0-9.59.72c-1,.24-1.61.38-2.54.54-1,0-1.95,0-2.9.08a14.21,14.21,0,0,1-1.77-.27c-4.6-.44-8.76.83-13.33,1a1.7,1.7,0,0,0-.59.51s0,0,0,0l-1,.08c-1.75-.42-3.7-1.18-5.43-1.16-1.35,0-.79.24-.14.73-1.77.13-3.2.66-5.05.33a37.68,37.68,0,0,0-9.25-.4,21.39,21.39,0,0,1,3.12-.23,39.84,39.84,0,0,0,6.2-.46c.41,0,.82.07,1.24.09h.68l.25.35c.45-.18.25-.28-.11-.36l.84,0,.81,0h0l1-.06h.23c.55,0,1.72-.07,2.47-.05.42,0,1,0,1.48,0l1,0,2.07-.11c2.13-.12,4.3-.27,6.42-.4,13.46-.85,26.9-1.79,40.36-2.62l2.72-.18c1.76-.13,3.52-.24,5.27-.36l3.55-.24,1-.07,1.95-.14,3.38-.23,1.48-.1,1-.06,3.16-.2q3.61-.26,7.24-.46a29.57,29.57,0,0,0-7.6,1.77A10.91,10.91,0,0,1,767.86,109.45Zm18.46,2.46-2.09.13q1.28-.37,2.57-.72C786.65,111.53,786.48,111.72,786.32,111.91Zm-8.44-2.21c1-.22,1.87-.56,2.85-.86a6.27,6.27,0,0,1,2-.2c.44,0,1,0,1.43,0a17.73,17.73,0,0,1,2.89.05l.81.07A43.36,43.36,0,0,1,777.87,109.71Zm13.06-.88a5.31,5.31,0,0,1-1.7-.19,2.93,2.93,0,0,0,.36-.17,3.27,3.27,0,0,1,1.7-.64,8.92,8.92,0,0,1,2.59.35c-.69,0-1.41-.11-2.11-.2C791.9,108.65,791.55,108.76,790.94,108.83Zm9.94,2.63h-.23c-1.22,0-4.2.54-5.89.5-.36,0-1.08-.13-1.47-.14l8-.65c3.63-.29,7.57-.48,11.27-.61a1.34,1.34,0,0,1,.18.1Zm15.95-1a.74.74,0,0,0-.24.4s0,0,0,0h-.06a8.14,8.14,0,0,0-1,0l-.11,0c-.22-.06-1.2-.27-1.4-.29h-.07s0,0,0,0h0s0,0,0,0Zm-1.56-6.1c.18,0,.38-.07.56-.05a4.25,4.25,0,0,1,1.56.44A6.32,6.32,0,0,0,815.26,104.41Zm18.45-3.79s0,0,0,0,.07,0,.06,0S833.72,100.63,833.72,100.62Zm13.73-2.21-.12,0,.15,0Zm51.13,3.47c.61-.21,1.52-.49,2.21-.68.26-.07.55-.16.8-.26,0,.2.21.45.25.62.22.94-1.06.09-1.55.22a3.21,3.21,0,0,0-2.3.7C897.86,102,898.12,102,898.58,101.89Zm-14.65-.43a25.79,25.79,0,0,0-2.77,2.27c-.23.16-.29.36,0,.55l.09,0h0a.15.15,0,0,0,0,0c-.5-.28-.32-.51.07-.79C879.15,101.72,882.68,101.67,883.93,101.46Zm-5.56,4.38h0l0,0c-.06.06,0,0,0,0Zm-3.64-9.33h0S874.74,96.51,874.72,96.51Zm5.58-5.13s0,0,0,0h0Zm31.09,4.73,1.32,0A6.06,6.06,0,0,1,911.4,96.12Zm31.95-.34c-.75,0-1.72,0-2.51,0h2.89l.31,0A5.86,5.86,0,0,1,943.35,95.77Zm.77-.09s0,0,0,0S944.16,95.6,944.12,95.68ZM974,90.25l1.69,0c1.28,0,2.56,0,3.84,0Z"/><path class="cls-1" d="M846.16,101.44a2,2,0,0,0,.46-.09c-.12,0-.19-.13-.33-.14a1.93,1.93,0,0,0-.46.09C845.94,101.36,846,101.44,846.16,101.44Z"/><path class="cls-1" d="M800.81,111.46h0Z"/><path class="cls-1" d="M693.5,112.65h0S693.31,112.66,693.5,112.65Z"/><path class="cls-1" d="M425.52,8l.07,0C425.81,7.84,425.47,7.93,425.52,8Z"/><path class="cls-1" d="M232,122.55a12.15,12.15,0,0,1-3.15-.18,3.93,3.93,0,0,0-3.08.25c1.44,1.18,2.5,1,4.28.77.55-.08,1.61.47,2.19,0h.06c.17,0-.29,0,.18,0a21,21,0,0,0,3.22,0,12.86,12.86,0,0,1,.39,1.29,12.72,12.72,0,0,0,2.32-.42H239c.17,0,.41,0,.59,0a16.1,16.1,0,0,0,6.5,0c1.51-.23,3.29.91,4.39-.62l.14,0c.52-.08-.88.18.56-.06.59-.1,1.62-.42,2.81-.72l-1.22,0C245.9,122.46,239,122,232,122.55Z"/><path class="cls-1" d="M545.85,129.37c1.7.19,3.69.44,5-.73C550,129.25,547.56,129.45,545.85,129.37Z"/><path class="cls-1" d="M550.83,128.63l.12-.11s-.1.08-.15.13Z"/><path class="cls-1" d="M254,122.78q3.3.12,6.56.15C259,121.74,256.25,122.22,254,122.78Z"/><path class="cls-1" d="M125.27,79.3a.37.37,0,0,1,.18-.18C125.37,79.13,125.22,79.22,125.27,79.3Z"/><path class="cls-1" d="M551,128.52l.18-.18h0Z"/><path class="cls-1" d="M551.08,128.36a.77.77,0,0,1,0-.08S551,128.34,551.08,128.36Z"/><path class="cls-1" d="M297.92,122.24h0Z"/><path class="cls-1" d="M47.75,83.32h0C47.67,83.26,47.74,83.31,47.75,83.32Z"/><path class="cls-1" d="M52.94,110.15h0Z"/><path class="cls-1" d="M153.5,127.31l-.09.12C153.4,127.51,153.65,127.39,153.5,127.31Z"/><path class="cls-1" d="M122.24,121.67h0C122.17,121.6,122.24,121.65,122.24,121.67Z"/><path class="cls-1" d="M803,120c.6.2,2.29-.65,3.17-.35h0c5,3.94,10.54.11,16-.18,4.47-.23,9.1-.16,13.57-.37a8.91,8.91,0,0,0,4.08-.69c-11.26.25-22.54.47-33.79.73-1.12-1.52-2-1.29-3.82-.93a16.12,16.12,0,0,1-1.68.22,5.6,5.6,0,0,1,2.13,1.38S802.64,119.87,803,120Z"/><path class="cls-1" d="M800.52,118.41a8.35,8.35,0,0,0-4.82,0c.32,0,.65,0,1,.06A27.86,27.86,0,0,0,800.52,118.41Z"/><path class="cls-1" d="M832.75,112.29c-1.26,0-2.53.05-3.79.1A10.71,10.71,0,0,0,832.75,112.29Z"/><path class="cls-1" d="M545.85,129.37c-.38,0-.75-.08-1.1-.1A9.32,9.32,0,0,0,545.85,129.37Z"/><path class="cls-1" d="M788.19,120.76c-.23.05.46,0,0,0Z"/><path class="cls-1" d="M585.12,128.41l-.13,0C584.41,128.66,585.18,128.49,585.12,128.41Z"/><path class="cls-1" d="M641.16,127.18a1.19,1.19,0,0,1-.17.18C641,127.48,641.29,127.33,641.16,127.18Z"/><polygon class="cls-1" points="161.38 27.76 161.4 27.76 161.39 27.75 161.38 27.76"/><path class="cls-1" d="M787.89,120.79Z"/><path class="cls-1" d="M940.19,45.6h0Z"/><path class="cls-1" d="M871.39,9.78h0Z"/><path class="cls-1" d="M892,66.37h0Z"/><path class="cls-1" d="M886.58,52a.33.33,0,0,1-.12.21S886.66,52.16,886.58,52Z"/><path class="cls-1" d="M872.07,50.85a8.5,8.5,0,0,1-.8-.41A2.86,2.86,0,0,0,872.07,50.85Z"/><path class="cls-1" d="M878.18,50.1a1.1,1.1,0,0,1,.16-.13S878.14,50,878.18,50.1Z"/><path class="cls-1" d="M189.74,22a12.29,12.29,0,0,1-3.15-.18,3.94,3.94,0,0,0-3.09.25c1.44,1.18,2.51,1,4.29.77.55-.08,1.61.48,2.19,0H190c.17,0-.29,0,.18,0a21.08,21.08,0,0,0,3.23,0,12.89,12.89,0,0,1,.39,1.29,12.74,12.74,0,0,0,2.32-.42h.61c.17,0,.41,0,.59,0a16.13,16.13,0,0,0,6.51,0c1.51-.24,3.29.91,4.4-.62h.13c.5,0-.86.09.48,0s3.18-.56,5.08-.72c-1.13,0-2.25-.06-3.39-.1C203.64,21.94,196.7,21.46,189.74,22Z"/><path class="cls-1" d="M840.91,5.5l.08-.11C841,5.33,840.78,5.41,840.91,5.5Z"/><path class="cls-1" d="M128.83,79.12c.11,0,0,0,0,0Z"/><path class="cls-1" d="M132.3,64.66h0Z"/><path class="cls-1" d="M132.3,64.66h0Z"/><path class="cls-1" d="M134.42,81.5l-.13.09C134.38,81.55,134.45,81.5,134.42,81.5Z"/><path class="cls-1" d="M214,22.31l2.86.08A11.31,11.31,0,0,0,214,22.31Z"/><path class="cls-1" d="M154.66,71h-5.27l2,.14C152.45,71.15,153.55,71.11,154.66,71Z"/><path class="cls-1" d="M796.87,10l0,0C796.87,10,796.87,10,796.87,10Z"/><path class="cls-1" d="M111.33,26.63l-.09.11C111.23,26.82,111.48,26.71,111.33,26.63Z"/><path class="cls-1" d="M856.26,111.4a12.89,12.89,0,0,1,3.15,0,3.25,3.25,0,0,0,2.89-.4,5.56,5.56,0,0,0-4.51-.55c-.56.11-1.63-.49-2.15.12h-.25l-3.13.15c-.38-.4-.66-.83-1-1.25a8.16,8.16,0,0,0-2.06.53h0l-.55,0c-.17,0-.4,0-.57,0a14.58,14.58,0,0,0-6.29.35c-1.44.34-3.06-.7-4,.83l-.13,0c-.52.07.88-.15-.51.05-1.09.16-2.66.64-4.32.93,1,0,2.07-.06,3.11-.06C842.67,112.19,849.47,112.32,856.26,111.4Z"/><path class="cls-1" d="M80.16,20.88h0C80.08,20.82,80.16,20.87,80.16,20.88Z"/><path class="cls-1" d="M157.26,17.34a.57.57,0,0,1,.21-.16C157.41,17.18,157.22,17.27,157.26,17.34Z"/><path class="cls-1" d="M113.58,44.79a4.4,4.4,0,0,0-.45,0,3.41,3.41,0,0,0-.49,0c-.11,0,0,.06.43.06C113.23,44.83,113.38,44.8,113.58,44.79Z"/><path class="cls-1" d="M893.85,63.66a9.87,9.87,0,0,0,2.23.12,4.71,4.71,0,0,0,1.24-.06,11.18,11.18,0,0,0-2.21-.13A4.17,4.17,0,0,0,893.85,63.66Z"/><path class="cls-1" d="M886.78,54.81a9.74,9.74,0,0,0,2,.1c.57,0,1.36,0,1.24-.06a12.66,12.66,0,0,0-2.12-.11A2.9,2.9,0,0,0,886.78,54.81Z"/></g></g></svg>