<svg xmlns="http://www.w3.org/2000/svg" viewBox="0 0 1197.75 1181.31"><defs><style>.cls-1{fill:#fff;}</style></defs><title>fb-white</title><g id="Layer_2" data-name="Layer 2"><g id="Layer_1-2" data-name="Layer 1"><path class="cls-1" d="M1198,52.15v1086c-13.31,23.1-30.24,42.43-59.09,42.53-102.69.32-205.43-.32-308.12-.59l-4.79-6.23a20.17,20.17,0,0,1-.8-3.89q-.16-228.45-.43-457c-.05-11.34,3.57-14.69,14.75-14.53,41.26.53,82.51-.21,123.71.43,12.51.21,17.73-2.71,17.46-16.45-.85-38.59-.75-77.19-.11-115.73.21-12.3-4-15.86-16-15.7-39.93.64-79.85-.37-119.72.59-15,.37-20.87-2.93-20.28-19.32,1.06-33.43,1-67,.37-100.45l13.84-.21c.48,29.12,7.29,35.72,37.32,35.77q128.72.08,257.44.11c8.57,0,18-1.12,25.66,1.81,21.24,8.09,23.05-2.4,23.05-19.59-.43-125.74-.16-251.42-.21-377.16,0-42.27-14-56.32-56.05-56.32q-263.43-.08-526.85,0-265.42,0-530.79,0c-32.74,0-47.59,12.08-53.82,44C12.87,68.6,12.81,77.33,12.33,86c-.48,9.42-.69,18.84-.69,28.27H.25V44.17A99.53,99.53,0,0,1,44.17.25H1150.09C1174.37,9.89,1192.57,25.11,1198,52.15Z" transform="translate(-0.25 -0.25)"/><path class="cls-1" d="M1010.52,327.74c.21,14.59-5.75,20.39-20.18,20-22.62-.53-45.25-.69-67.87.11-52.06,1.76-84.53,34.6-83.68,83.74l-13.84.21c-.05-4.42-.11-8.84-.21-13.26-.48-24,9.16-42.43,26.83-57.39,21.56-18.31,46.53-28,74.9-28.27,18-.16,36-.75,53.87.21,12.67.69,15.76-4.31,15.49-16.08q-1-49.91,0-99.76c.27-12.51-2.66-17.57-16.45-17.3-48.55.8-97.1-.21-145.65.43-90.82,1.22-167.1,78.52-167.47,169.23-.16,52.54-.85,105.08.43,157.62.43,18.53-3.19,25.5-23.48,24.54-37.85-1.86-75.86-.05-113.71-.8-13.36-.32-18.68,2.61-18.31,17.3,1.06,37.85.85,75.8.11,113.71-.32,12.94,3.35,17.19,16.61,16.93,41.2-.8,82.46.05,123.71-.53,11.29-.16,15,3.3,14.85,14.69-.59,37.9-.16,75.8-.21,113.71l-.8,347.19-6.55,6.07c-7.93.32-15.86.85-23.8.85-183.82.05-367.63-.64-551.45.64-37.32.21-66-9-83.42-43.44V114.22H11.64c0,45.09,4.63,90,4.58,135.11q-.08,227.49.05,455c0,42.53,0,42.48,42.27,42.48q283.31,0,566.72-.11c10.43-.05,25.29,4,25-14.05s-15.22-13.73-25.5-13.47c-41.15,1-82.41-3.25-123.5,2.66-10.75,1.54-20.28-1.44-11.45-15.33,5.43-8.52,5.43-17.57,5.43-26.83.05-39.93.53-79.85-.16-119.78-.37-17.78,6.12-25.29,24.43-24.91,35.88.8,71.87-.53,107.74.53,18.63.59,24.27-6.65,24-24.54-.85-48.55-.64-97.1-.16-145.7.85-84.69,74.63-166.57,158.37-177.27,59.67-7.67,119.51-2.56,179.29-3.89,14.59-.32,21.88,6.6,21.72,21.88C1010.09,246.61,1010,287.18,1010.52,327.74Z" transform="translate(-0.25 -0.25)"/><path class="cls-1" d="M599.14,16.19q263.42,0,526.84,0c42,0,56.05,14.09,56.06,56.33,0,125.72-.2,251.45.18,377.17.05,17.18-1.78,27.7-23,19.59-7.68-2.93-17.07-1.82-25.69-1.83q-128.72-.16-257.43-.09c-30,0-36.83-6.67-37.33-35.76-.85-49.15,31.63-82,83.73-83.77,22.59-.78,45.24-.63,67.84-.08,14.43.35,20.37-5.44,20.2-20-.48-40.57-.43-81.15-.06-121.73.14-15.32-7.12-22.2-21.73-21.88C929,185.46,869.11,180.33,809.43,188,725.69,198.71,652,280.56,651.09,365.29c-.5,48.55-.68,97.13.17,145.67.31,17.91-5.36,25.11-24,24.56-35.89-1.07-71.85.28-107.75-.52-18.28-.41-24.77,7.09-24.45,24.91.72,39.9.23,79.82.18,119.73,0,9.29,0,18.31-5.43,26.86-8.85,13.87.68,16.88,11.46,15.33,41.1-5.92,82.35-1.71,123.5-2.67,10.28-.24,25.21-4.5,25.47,13.47s-14.56,14-25,14q-283.38.3-566.75.15c-42.23,0-42.23,0-42.24-42.51q0-227.5,0-455c0-54.49-6.73-108.81-3.89-163.35.45-8.61.48-17.35,2.13-25.76,6.26-31.88,21.13-44,53.82-44Q333.73,16.13,599.14,16.19Z" transform="translate(-0.25 -0.25)"/><path class="cls-1" d="M665.47,1174c.85,5.3-1.61,7-6.56,6.09Z" transform="translate(-0.25 -0.25)"/><path class="cls-1" d="M830.8,1180.07c-5.47.92-5.81-2.13-4.81-6.22Z" transform="translate(-0.25 -0.25)"/></g></g></svg>