<svg xmlns="http://www.w3.org/2000/svg" xmlns:xlink="http://www.w3.org/1999/xlink" viewBox="0 0 217.9 217.9"><defs><style>.cls-1,.cls-18,.cls-3{stroke-miterlimit:10;}.cls-1{fill:url(#linear-gradient);stroke:url(#linear-gradient-2);}.cls-2{fill:url(#linear-gradient-3);}.cls-3{fill:url(#linear-gradient-4);stroke:url(#linear-gradient-5);}.cls-4{fill:url(#linear-gradient-6);}.cls-5{fill:url(#linear-gradient-7);}.cls-23,.cls-6{fill:#4e4d4d;}.cls-7{fill:#454546;}.cls-8{fill:url(#linear-gradient-8);}.cls-9{fill:url(#linear-gradient-9);}.cls-10{fill:url(#linear-gradient-10);}.cls-11{fill:url(#linear-gradient-11);}.cls-12{fill:url(#linear-gradient-12);}.cls-13{fill:url(#linear-gradient-13);}.cls-14{fill:url(#linear-gradient-14);}.cls-15{fill:url(#linear-gradient-15);}.cls-16{fill:url(#linear-gradient-16);}.cls-17{fill:url(#linear-gradient-17);}.cls-18,.cls-27{fill:none;}.cls-18{stroke:#231f20;stroke-width:0.75px;}.cls-19{fill:url(#linear-gradient-18);}.cls-20{fill:url(#linear-gradient-19);}.cls-21{fill:url(#linear-gradient-20);}.cls-22{fill:url(#linear-gradient-21);}.cls-23{font-size:8px;font-family:MyriadPro-Regular, Myriad Pro;letter-spacing:1em;}.cls-24{letter-spacing:0.99em;}.cls-25{letter-spacing:1em;}.cls-26{fill:#a7812e;}</style><linearGradient id="linear-gradient" x1="94.74" y1="29.75" x2="94.74" y2="120.18" gradientUnits="userSpaceOnUse"><stop offset="0.2" stop-color="#1f3e1f"/><stop offset="0.48" stop-color="#38b34a"/><stop offset="0.8" stop-color="#204121"/></linearGradient><linearGradient id="linear-gradient-2" x1="94.24" y1="65.49" x2="95.24" y2="65.49" gradientUnits="userSpaceOnUse"><stop offset="0" stop-color="#fff"/><stop offset="1"/></linearGradient><linearGradient id="linear-gradient-3" x1="101.88" y1="29.27" x2="101.88" y2="120.92" gradientUnits="userSpaceOnUse"><stop offset="0.2" stop-color="#1f3e1f"/><stop offset="0.48" stop-color="#126a36"/><stop offset="0.8" stop-color="#204121"/></linearGradient><linearGradient id="linear-gradient-4" x1="94.68" y1="29.24" x2="94.68" y2="120.96" xlink:href="#linear-gradient"/><linearGradient id="linear-gradient-5" x1="94.19" y1="65.44" x2="95.17" y2="65.44" xlink:href="#linear-gradient-2"/><linearGradient id="linear-gradient-6" x1="108.59" y1="29.26" x2="108.59" y2="120.92" xlink:href="#linear-gradient-3"/><linearGradient id="linear-gradient-7" x1="115.75" y1="29.26" x2="115.75" y2="120.92" xlink:href="#linear-gradient-3"/><linearGradient id="linear-gradient-8" x1="72.82" y1="84.38" x2="72.82" y2="84.25" gradientUnits="userSpaceOnUse"><stop offset="0" stop-color="#1f3e1f"/><stop offset="0.48" stop-color="#38b34a"/><stop offset="1" stop-color="#204121"/></linearGradient><linearGradient id="linear-gradient-9" x1="72.71" y1="84.38" x2="72.71" y2="84.07" xlink:href="#linear-gradient-8"/><linearGradient id="linear-gradient-10" x1="25.57" y1="171.43" x2="182.78" y2="171.88" xlink:href="#linear-gradient-3"/><linearGradient id="linear-gradient-11" x1="25.57" y1="173.7" x2="182.77" y2="174.15" xlink:href="#linear-gradient-3"/><linearGradient id="linear-gradient-12" x1="25.57" y1="173.48" x2="182.77" y2="173.92" xlink:href="#linear-gradient-3"/><linearGradient id="linear-gradient-13" x1="25.58" y1="171.1" x2="182.77" y2="171.55" xlink:href="#linear-gradient-3"/><linearGradient id="linear-gradient-14" x1="25.57" y1="173.77" x2="182.77" y2="174.21" xlink:href="#linear-gradient-3"/><linearGradient id="linear-gradient-15" x1="25.57" y1="173.5" x2="182.76" y2="173.94" xlink:href="#linear-gradient-3"/><linearGradient id="linear-gradient-16" x1="25.58" y1="170.56" x2="182.77" y2="171.01" xlink:href="#linear-gradient-3"/><linearGradient id="linear-gradient-17" x1="25.56" y1="173.42" x2="182.77" y2="173.86" xlink:href="#linear-gradient-3"/><linearGradient id="linear-gradient-18" x1="93.02" y1="78.32" x2="93.02" y2="78.2" xlink:href="#linear-gradient-8"/><linearGradient id="linear-gradient-19" x1="92.91" y1="78.32" x2="92.91" y2="78.02" xlink:href="#linear-gradient-8"/><linearGradient id="linear-gradient-20" x1="123.53" y1="98.63" x2="123.53" y2="98.63" xlink:href="#linear-gradient-8"/><linearGradient id="linear-gradient-21" x1="125.1" y1="63.9" x2="125.1" y2="63.9" xlink:href="#linear-gradient-8"/></defs><title>front-logo_2</title><g id="Layer_2" data-name="Layer 2"><g id="Layer_1-2" data-name="Layer 1"><path class="cls-1" d="M94.74,65.53v-.07"/><path class="cls-2" d="M108.82,91.07c-8,0-14.06-8.21-14.08-25.16C101.77,77.84,110.44,81.35,108.82,91.07Z"/><path class="cls-3" d="M94.74,65.53l-.11-.19"/><path class="cls-4" d="M110.65,78.35c-7.47-2.57-5.86-6.08.82-21.92C109.63,65.27,108.21,70.8,110.65,78.35Z"/><path class="cls-5" d="M108.41,94.38c8.77.18,14.85-8.65,14.87-25.6C116.25,80.72,106.78,84.67,108.41,94.38Z"/><path class="cls-6" d="M37.85,125.31c-4.8,2.42-8.53-1.24-12.77-5-1.38-1.24-2.39,0-2.77.79l6.81,10.88,6.3,10.12c.72-.18,2.09-.28,1.45-2.64-1.66-6.18-2.94-10.07,1.12-13.89"/><path class="cls-7" d="M35.65,126.45a26.76,26.76,0,0,1,2.49-1.28,3.91,3.91,0,0,1,2.85-.29,9,9,0,0,1,2.46,1.47l2.2,1.7a33.18,33.18,0,0,0,9.52,5.22,13.42,13.42,0,0,0,10.19-.41,12.46,12.46,0,0,0,2.19-1.34c.7-.52,1.44-1.11,2.16-1.68L74,126.37q8.64-7,17.38-13.84c5.87-4.53,11.61-9.18,17.75-13.41l.1.18c-2.87,2.28-5.66,4.75-8.47,7.15l-8.45,7.21q-8.47,7.19-17,14.27L71,131.46c-.73.58-1.43,1.16-2.21,1.75a14.47,14.47,0,0,1-2.6,1.47,13.66,13.66,0,0,1-5.8,1.07,17.94,17.94,0,0,1-5.67-1.15,32.85,32.85,0,0,1-9.6-5.87L43,126.9a8.5,8.5,0,0,0-2.2-1.51,3.46,3.46,0,0,0-2.55.13,26.55,26.55,0,0,0-2.52,1.11Z"/><path class="cls-7" d="M35.9,127.11a27.11,27.11,0,0,0,1.92-2,3.76,3.76,0,0,0,1.05-2.35,8.62,8.62,0,0,0-.52-2.63l-.86-2.65a37.48,37.48,0,0,1-1.93-11.1,18.76,18.76,0,0,1,.85-5.72,14.15,14.15,0,0,1,2.92-5.13,15.27,15.27,0,0,1,2.2-2c.8-.61,1.6-1.06,2.38-1.57L48.65,89q9.5-5.82,19.14-11.39l9.68-5.52,4.89-2.68,2.46-1.31,1.25-.63A7.1,7.1,0,0,1,87.4,67v.2A25.46,25.46,0,0,0,85,68.51L82.67,70,78,73l-9.4,6L49.72,90.77l-4.71,3a21.9,21.9,0,0,0-4.25,3.15,12.34,12.34,0,0,0-2.8,4.33,16.82,16.82,0,0,0-1,5.21,38.41,38.41,0,0,0,1.36,10.84L39,120a9.12,9.12,0,0,1,.38,2.84,4.21,4.21,0,0,1-1.3,2.56,27.33,27.33,0,0,1-2.06,1.9Z"/><path class="cls-6" d="M180.06,125.31c4.8,2.42,8.53-1.24,12.77-5,1.38-1.24,2.39,0,2.77.79l-6.81,10.88-6.3,10.12c-.72-.18-2.08-.28-1.45-2.64,1.66-6.18,2.94-10.07-1.12-13.89"/><path class="cls-7" d="M182.16,126.63a26.52,26.52,0,0,0-2.52-1.11,3.46,3.46,0,0,0-2.55-.13,8.5,8.5,0,0,0-2.2,1.51l-2.09,1.83a32.85,32.85,0,0,1-9.6,5.87,17.94,17.94,0,0,1-5.67,1.15,13.65,13.65,0,0,1-5.8-1.07,14.47,14.47,0,0,1-2.6-1.47c-.78-.59-1.49-1.16-2.21-1.75l-4.31-3.51q-8.58-7.06-17-14.27l-8.45-7.21c-2.81-2.4-5.6-4.87-8.47-7.15l.1-.18c6.14,4.23,11.88,8.88,17.75,13.41s11.61,9.19,17.38,13.84l4.32,3.47c.72.57,1.45,1.15,2.16,1.68a12.46,12.46,0,0,0,2.19,1.34,13.42,13.42,0,0,0,10.19.41,33.19,33.19,0,0,0,9.52-5.22l2.2-1.7a9,9,0,0,1,2.46-1.47,3.91,3.91,0,0,1,2.85.29,26.73,26.73,0,0,1,2.49,1.28Z"/><path class="cls-7" d="M181.87,127.26a27.3,27.3,0,0,1-2.06-1.9,4.21,4.21,0,0,1-1.3-2.56,9.13,9.13,0,0,1,.38-2.84l.7-2.69A38.39,38.39,0,0,0,181,106.42a16.82,16.82,0,0,0-1-5.21,12.34,12.34,0,0,0-2.8-4.33,21.92,21.92,0,0,0-4.25-3.15l-4.71-3L149.34,78.91l-9.4-6-4.7-3-2.36-1.47a25.44,25.44,0,0,0-2.36-1.36V67a7.1,7.1,0,0,1,1.34.56l1.25.63,2.46,1.31,4.89,2.68,9.68,5.52q9.63,5.6,19.14,11.39L174,92c.79.51,1.58,1,2.38,1.57a15.27,15.27,0,0,1,2.2,2,14.15,14.15,0,0,1,2.92,5.13,18.76,18.76,0,0,1,.85,5.72,37.47,37.47,0,0,1-1.93,11.1l-.86,2.65a8.63,8.63,0,0,0-.52,2.63,3.76,3.76,0,0,0,1.05,2.35,27.09,27.09,0,0,0,1.92,2Z"/><path class="cls-8" d="M72.82,84.38v-.12"/><path class="cls-9" d="M72.82,84.38l-.22-.31"/><path class="cls-10" d="M47.52,181.22l-5.19-7.62L41,175.15v6.07h-4.7V161.75H41v8.12l5.92-8.12H52.8L45.55,170l7.86,11.24Z"/><path class="cls-11" d="M56.89,179.67q-1.86-2-1.86-5.9,0-4.09,1.84-6T62.46,166a7.58,7.58,0,0,1,5.63,1.91Q70,169.78,70,173.78A8.12,8.12,0,0,1,68,179.65a7.39,7.39,0,0,1-5.57,2Q58.74,181.66,56.89,179.67Zm8-2.61a5.57,5.57,0,0,0,.81-3.28,5.5,5.5,0,0,0-.8-3.37,2.9,2.9,0,0,0-2.42-1,2.81,2.81,0,0,0-2.42,1,5.84,5.84,0,0,0-.74,3.37,5.77,5.77,0,0,0,.77,3.33,2.74,2.74,0,0,0,2.39,1.08A2.78,2.78,0,0,0,64.87,177.06Z"/><path class="cls-12" d="M94.23,167.25a4.94,4.94,0,0,1,1.48,4v9.93H91.38v-9.05c0-1.7-.95-2.54-2.84-2.54a3.46,3.46,0,0,0-2,.56c0,.47.06.84.06,1.1v9.93H82.27v-9.05c0-1.7-.95-2.54-2.84-2.54a4.71,4.71,0,0,0-2.15.5v11.09H73V167.71a14.31,14.31,0,0,1,3.45-1.14,19,19,0,0,1,4.15-.52,7.18,7.18,0,0,1,4.32,1.05,12.49,12.49,0,0,1,2.39-.78,11.24,11.24,0,0,1,2.39-.27A7.12,7.12,0,0,1,94.23,167.25Z"/><path class="cls-13" d="M112.27,168a8.57,8.57,0,0,1,1.71,5.75q0,7.88-7.72,7.88-6.73,0-6.73-3.85V161h4.23v6a6.21,6.21,0,0,1,1.78-.7,8,8,0,0,1,1.78-.23A6.15,6.15,0,0,1,112.27,168Zm-2.61,6q0-4.53-3.37-4.52a5.67,5.67,0,0,0-1.3.16,4.63,4.63,0,0,0-1.22.45v6.54q0,1.37,2.44,1.37Q109.66,178,109.66,174Z"/><path class="cls-14" d="M118.81,180.14a5.54,5.54,0,0,1-1.84-4.55v-9.14h4.32v8.79a3,3,0,0,0,.62,2.09,3.22,3.22,0,0,0,4,0,3,3,0,0,0,.62-2.09v-8.79h4.06v9.14a5.69,5.69,0,0,1-1.76,4.57,7.38,7.38,0,0,1-4.94,1.5A7.72,7.72,0,0,1,118.81,180.14Z"/><path class="cls-15" d="M137.4,180.76a6.53,6.53,0,0,1-2.77-2.55,9.32,9.32,0,0,1,1.06-10.13,7.65,7.65,0,0,1,5.57-2,12.71,12.71,0,0,1,2.47.25,10,10,0,0,1,2.2.69v3.74a17.69,17.69,0,0,0-2.12-.8,6.43,6.43,0,0,0-1.85-.28,4.36,4.36,0,0,0-3,.95,3.76,3.76,0,0,0-1.08,3,4.76,4.76,0,0,0,1,3.33,4.27,4.27,0,0,0,3.27,1.08,8,8,0,0,0,3.8-1.16v3.7a9.33,9.33,0,0,1-2.16.83,10.43,10.43,0,0,1-2.51.28A8.76,8.76,0,0,1,137.4,180.76Z"/><path class="cls-16" d="M161.44,167.33a5.43,5.43,0,0,1,1.42,4.21v9.69h-4.32v-8.79a2.47,2.47,0,0,0-2.79-2.8,4.92,4.92,0,0,0-1.36.2,3.27,3.27,0,0,0-1.07.5l-.06,10.89H149V160.61h4.35v6.51a8.62,8.62,0,0,1,4.15-1.08A5.71,5.71,0,0,1,161.44,167.33Z"/><path class="cls-17" d="M177.49,167.14q2,1.12,2,4l0,7a2.83,2.83,0,0,1-1.83,2.67,12.94,12.94,0,0,1-5.25.83q-6.44,0-6.44-5a4.27,4.27,0,0,1,1.32-3.33,5.68,5.68,0,0,1,3.93-1.2,8.5,8.5,0,0,1,2.15.28,7.75,7.75,0,0,1,1.86.71v-.93q0-2.54-3.25-2.54a7.92,7.92,0,0,0-2.57.45,6.8,6.8,0,0,0-2.1,1.1V167.3a7.5,7.5,0,0,1,2.39-.91,15.14,15.14,0,0,1,3.46-.38A8.71,8.71,0,0,1,177.49,167.14Zm-2.9,11.26a.8.8,0,0,0,.58-.82V175.3a6.83,6.83,0,0,0-2.23-.35,3.94,3.94,0,0,0-2.08.42,1.47,1.47,0,0,0-.65,1.33,1.65,1.65,0,0,0,.68,1.37,2.57,2.57,0,0,0,1.61.52A7.28,7.28,0,0,0,174.59,178.39Z"/><line class="cls-18" x1="35.68" y1="189.85" x2="182.23" y2="189.85"/><path class="cls-19" d="M93,78.32V78.2"/><path class="cls-20" d="M93,78.32,92.81,78"/><path class="cls-21" d="M123.53,98.63"/><path class="cls-22" d="M125.1,63.9"/><path class="cls-19" d="M93,78.32V78.2"/><path class="cls-20" d="M93,78.32,92.81,78"/><path class="cls-21" d="M123.53,98.63"/><path class="cls-22" d="M125.1,63.9"/><path class="cls-19" d="M93,78.32V78.2"/><path class="cls-20" d="M93,78.32,92.81,78"/><path class="cls-21" d="M123.53,98.63"/><path class="cls-22" d="M125.1,63.9"/><path class="cls-19" d="M93,78.32V78.2"/><path class="cls-20" d="M93,78.32,92.81,78"/><path class="cls-21" d="M123.53,98.63"/><path class="cls-22" d="M125.1,63.9"/><text class="cls-23" transform="translate(85.3 202.15) scale(0.99 1)">Ke<tspan class="cls-24" x="24.34" y="0">n</tspan><tspan class="cls-25" x="36.68" y="0">y</tspan><tspan x="48.42" y="0">a</tspan></text><path class="cls-26" d="M101,43.22a4.89,4.89,0,0,1-1.22,3.25,4.77,4.77,0,0,1-3.24,1.66,5,5,0,0,1-3.68-1.23,5,5,0,0,1,0-7.37,5,5,0,0,1,3.68-1.23A4.78,4.78,0,0,1,99.77,40,4.88,4.88,0,0,1,101,43.22Zm-.1,0a4.41,4.41,0,0,0-1.28-3.09,4.36,4.36,0,1,0,0,6.18A4.41,4.41,0,0,0,100.89,43.22Z"/><path class="cls-26" d="M105.46,55.77a5,5,0,0,1-1.25,3.34,4.89,4.89,0,0,1-3.33,1.7,5.07,5.07,0,0,1-3.77-1.27,5.1,5.1,0,0,1,0-7.54,5.08,5.08,0,0,1,3.76-1.27,4.9,4.9,0,0,1,3.33,1.69A5,5,0,0,1,105.46,55.77Zm-.1,0A4.53,4.53,0,0,0,104,52.6a4.49,4.49,0,1,0,0,6.35A4.53,4.53,0,0,0,105.36,55.77Z"/><path class="cls-26" d="M109.81,15.88a2.59,2.59,0,0,1-.55,1.62,2.47,2.47,0,0,1-1.62,1,2.65,2.65,0,0,1-2.06-.55,2.67,2.67,0,0,1,0-4.11,2.67,2.67,0,0,1,2.05-.55,2.47,2.47,0,0,1,1.62,1A2.58,2.58,0,0,1,109.81,15.88Zm-.1,0a2.07,2.07,0,0,0-2.07-2.06,2.06,2.06,0,0,0,0,4.11A2.07,2.07,0,0,0,109.71,15.88Z"/><path class="cls-26" d="M122.16,43.75A4.89,4.89,0,0,1,120.94,47a4.78,4.78,0,0,1-3.24,1.66A5,5,0,0,1,114,47.44a5,5,0,0,1,0-7.37,5,5,0,0,1,3.68-1.23,4.78,4.78,0,0,1,3.24,1.66A4.89,4.89,0,0,1,122.16,43.75Zm-.1,0a4.41,4.41,0,0,0-1.28-3.09,4.36,4.36,0,1,0,0,6.18A4.41,4.41,0,0,0,122.06,43.75Z"/><path class="cls-26" d="M118.27,30.26a7.56,7.56,0,0,1-2,5.13,7.42,7.42,0,0,1-5.12,2.45,7.6,7.6,0,0,1-5.55-2,7.64,7.64,0,0,1,0-11.13,7.61,7.61,0,0,1,5.55-2,7.43,7.43,0,0,1,5.12,2.44A7.56,7.56,0,0,1,118.27,30.26Zm-.1,0a7.09,7.09,0,0,0-2.05-5,6.95,6.95,0,0,0-9.89,0,7.08,7.08,0,0,0,0,9.9,6.95,6.95,0,0,0,9.89,0A7.09,7.09,0,0,0,118.17,30.26Z"/><path class="cls-26" d="M104.14,24.93a2.94,2.94,0,0,1-.65,1.87,2.83,2.83,0,0,1-1.87,1.09,3,3,0,0,1-2.31-.66,3,3,0,0,1,0-4.61,3,3,0,0,1,2.3-.66,2.83,2.83,0,0,1,1.87,1.09A2.94,2.94,0,0,1,104.14,24.93Zm-.1,0a2.43,2.43,0,0,0-2.42-2.41A2.41,2.41,0,1,0,104,24.93Z"/><circle class="cls-27" cx="108.95" cy="108.95" r="108.95"/></g></g></svg>