<svg xmlns="http://www.w3.org/2000/svg" viewBox="0 0 135.27 135.33"><defs><style>.cls-1{fill:#fff;}</style></defs><title>insta-white</title><g id="Layer_2" data-name="Layer 2"><g id="Layer_1-2" data-name="Layer 1"><path class="cls-1" d="M34.62,0h66c1.38.22,2.78.36,4.14.67C120.13,4.12,130,13.39,134.16,28.54c.55,2,.75,4,1.11,6.07v66c-.08.47-.14,1-.26,1.41-.91,3.52-1.35,7.26-2.85,10.51-6.73,14.59-18.31,22.39-34.4,22.61-20.07.28-40.15.08-60.23.06a36,36,0,0,1-21.33-6.62C5.46,121,.07,110.4,0,97.2Q0,67.61,0,38a36,36,0,0,1,.69-7.61C4.11,15.1,13.44,5.32,28.55,1.11,30.52.56,32.59.36,34.62,0ZM12,67.63q0,14.66,0,29.31A26.86,26.86,0,0,0,13.37,106c3.83,10.75,13.09,17.21,24.79,17.22,19.63,0,39.26.06,58.89-.05a29,29,0,0,0,8.93-1.37c10.82-3.64,17.26-13,17.28-24.7,0-19.68.06-39.35-.05-59a28.65,28.65,0,0,0-1.35-8.8C118.26,18.54,108.92,12,97.32,12Q67.67,11.93,38,12c-8.87,0-16,3.5-21.3,10.68A25.39,25.39,0,0,0,12,38.18Q12,52.9,12,67.63Z"/><path class="cls-1" d="M67.66,102.48A34.85,34.85,0,1,1,102.5,67.57,35,35,0,0,1,67.66,102.48ZM90.47,67.65A22.83,22.83,0,1,0,67.62,90.45,22.86,22.86,0,0,0,90.47,67.65Z"/><path class="cls-1" d="M103.93,22.64a8.77,8.77,0,1,1-8.77,8.72A8.83,8.83,0,0,1,103.93,22.64Z"/></g></g></svg>