<svg xmlns="http://www.w3.org/2000/svg" viewBox="0 0 1873.86 1522.41"><defs><style>.cls-1{fill:#fff;}</style></defs><title>twitter-white</title><g id="Layer_2" data-name="Layer 2"><g id="Layer_1-2" data-name="Layer 1"><path class="cls-1" d="M1252.06.34V0h87.86L1372,6.42a343.07,343.07,0,0,1,58.29,16.39A414.42,414.42,0,0,1,1481,46.47,481.14,481.14,0,0,1,1525.45,74a273.48,273.48,0,0,1,35.48,29.4q15.54,15.72,48.49,8.11a648.54,648.54,0,0,0,71-21.12q38-13.52,75.19-30.41t45.28-21.46q7.94-4.73,8.45-5.07l.34-.51,1.69-.84,1.69-.85,1.69-.84,1.69-.84.34-.51.5-.34.51-.34.33-.51,1.69-.5,1.69-.34-.34,2.53-.51,2.54-.85,2.54-.84,2.53-.84,1.69-.85,1.69-.84,2.53a58.62,58.62,0,0,0-1.69,6.76q-.84,4.22-16.05,33.79a422.71,422.71,0,0,1-38,60q-22.81,30.41-40.89,46-18.25,15.71-24.16,22a72.53,72.53,0,0,1-14.36,11.82l-8.44,5.58-3.38,1.69-.34.51-.51.34-.51.34-.34.51-1.69.84-1.69.85-.34.5-.51.34-.51.34-.34.51-.34.51-.51.34-.51.34-.34.51h8.44l47.31-10.14a845.66,845.66,0,0,0,90.4-24.5l45.62-15.21,5.07-1.69,2.54-.85,1.69-.84,1.69-.84,1.69-.84,1.69-.85,3.38-.51,3.38-.34v3.38l-.84.34-.84.5-.34.51-.51.34-.5.34-.34.51-.34.51-.51.34-.51.34-.34.5-.34.51-.51.34-.84,1.69-.84,1.69-.51.34q-.34.51-21.46,28.73-21.12,28.39-22.81,28.72-1.69.51-4.73,5.07-2.87,4.73-35.82,37.68a850.7,850.7,0,0,1-64.54,58.63q-31.76,25.85-32.11,63.53-.5,37.51-3.89,84.82t-12.67,102.22q-9.29,54.92-28.73,124.2a1129,1129,0,0,1-47.31,135.17q-27.88,65.9-58.3,118.28t-55.76,88.71q-25.35,36.33-51.54,68.43t-66.23,72.32q-40.21,40-43.93,43.93-3.89,3.72-33.12,27.71-29.06,24.16-62.52,48.33a722.37,722.37,0,0,1-61.16,40q-27.88,16.05-67.25,36.67a800.31,800.31,0,0,1-84.82,38.52q-45.62,17.74-96.31,32.95a880.12,880.12,0,0,1-98,23.66q-47.31,8.45-107.29,14.36l-60,5.91v.84H535.63v-.84l-14.36-.85q-14.36-.84-23.66-1.69t-70.12-9.29q-60.83-8.45-95.47-16.9T229,1460.73q-68.43-23.65-117.09-47.82-48.5-24-60.83-30.41-12.16-6.25-27.37-15.55l-15.21-9.29-.34-.5-.51-.34-.51-.34-.34-.51-1.69-.84-1.69-.85-.34-.51-.51-.34L2,1353.1l-.34-.5-.34-.51-.51-.34H0v-3.38l1.69.34,1.69.51,7.6.84q7.6.84,41.4,2.54t71.81,0a756.14,756.14,0,0,0,77.73-7.61q39.71-5.91,93.78-20.28a692.8,692.8,0,0,0,99.36-34.13q45.11-19.94,64.21-29.74,18.93-9.63,57.79-35.82l38.86-26.19.34-.51.5-.34.51-.34.67-1,.51-.34.51-.34.34-.5,1.69-.51,1.69-.34.34-1.69.51-1.69.51-.34.34-.51-13.52-.84q-13.51-.84-26.19-1.69t-39.71-7.6a381.28,381.28,0,0,1-58.3-20.28,449.72,449.72,0,0,1-60.83-32.11q-29.57-18.59-42.75-30.92-13-12.16-33.79-34.47a341.85,341.85,0,0,1-35.82-46.13,414.84,414.84,0,0,1-29.06-54.58l-14-30.75-.85-2.54-.84-2.53-.51-1.69-.34-1.69,2.54.34,2.53.51,18.59,2.54q18.59,2.53,58.29,1.69t54.91-3.38q15.21-2.54,18.59-3.38l3.38-.84,4.23-.85,4.22-.84.34-.51.51-.34.51-.34.34-.51L370,915l-3.38-.84-3.38-.85-3.38-.84q-3.37-.84-11.83-3.38t-45.62-18.59q-37.17-16.05-59.14-31.26a407.85,407.85,0,0,1-41.91-33.28q-19.77-18.25-43.43-47T115.74,712.2q-18.59-38-27.88-72.66A392.26,392.26,0,0,1,75.7,569.43l-3-35.49,1.69.34,1.69.51,1.69.84,1.69.85,3.38,1.69L109,550q26.19,11.83,65.05,20.28t46.46,9.29l7.6.84h15.21l-.34-.51-.51-.34-.5-.34-.34-.5-.34-.51-.51-.34-.51-.34-.34-.51-3.38-1.69-.34-.51-.51-.34-.51-.34-.34-.51-1.69-.84-1.69-.85-.34-.5q-.51-.34-14.54-10.82a222,222,0,0,1-29.06-27.54q-15.21-16.9-30.42-35.49a274.12,274.12,0,0,1-27-39.71q-11.82-21.12-25-53.73a381.5,381.5,0,0,1-19.77-65.39,372.13,372.13,0,0,1-7.6-65.05q-.84-32.11,1.69-54.91a359,359,0,0,1,10.14-51.54,401.34,401.34,0,0,1,22-60.83l14.36-32.1,1.69-5.07.51-.34.67-1,.51-.34.51.34.34.51.34.51.5.34.51.34.34.5.34.51.51.34.84,1.69.85,1.69.51.33.34.51L158,100.53q22.81,25.35,54.07,56.6t34.64,32.44q3.38,1.35,8.45,7.77,5.07,6.25,33.79,29.91t75.19,54.92q46.46,31.25,103.07,61.67a1005,1005,0,0,0,121.66,54.92q65.05,24.5,91.24,32.1t89.55,19.43q63.36,11.83,95.47,15.21t43.93,3.89l11.83.34-.34-2.54-.51-2.53-3.38-21.12q-3.37-21.12-3.38-59.14a387.85,387.85,0,0,1,5.91-70.12,415.75,415.75,0,0,1,17.74-65.05q11.83-33,23.15-52.89a520.44,520.44,0,0,1,30.08-45.12q18.59-25.34,48.16-52.38a355.22,355.22,0,0,1,67.59-48.16q38-21.12,70.12-32.1t54.07-14.36q22-3.38,22-3.89Zm0,0"/></g></g></svg>