<svg xmlns="http://www.w3.org/2000/svg" viewBox="0 0 176.42 213.08"><title>user</title><g id="Layer_2" data-name="Layer 2"><g id="Layer_1-2" data-name="Layer 1"><path d="M88,213.08c-18.48-.38-36.95-.42-55.37-1.32a82.7,82.7,0,0,1-21.16-4.19C3,204.85.2,199.69,0,190.78-.31,174,3.65,158.57,14.44,145.41c12.3-15,28.65-22.37,47.73-22.88,18.9-.5,37.87-.61,56.73.46,29,1.65,52.7,24.48,56.56,53.22.7,5.19.75,10.47.95,15.71.26,7-3.28,11.73-9.35,14.72-7.48,3.69-15.6,4.94-23.77,5.22C124.84,212.49,106.39,212.7,88,213.08Z"/><path d="M140.48,55.84c-.25,26.56-18.77,50.18-43.54,55.1-27.24,5.42-53.38-10.41-62-37.52C25,42,43.39,8.65,74.77,1.33c27.86-6.51,56.4,11.57,63.48,40.37C139.38,46.32,139.76,51.12,140.48,55.84Z"/></g></g></svg>